<svg xmlns="http://www.w3.org/2000/svg" viewBox="0 0 343.576 59.182"><g fill="#fff"><path d="M85.18 56.682s3-38-2-51c2 0 9 0 13-1s12-3 14-3c0 3-2 11-3 12-3-2-10-4-14-1 0 3-1 10 0 13 2 0 7-1 8-3 0 5-1 11-1 11s-6-3-8-1c0 3 3 21 4 24h-11zM134.38 12.452l3.3-.53v-6.74l-26 4 1 8h3c1 15-5 39-5 39l7 3c1.72-2.96 3.98-19.3 3.98-19.3l7.95-.4c0 4.37 2.65 18.68 2.65 18.68s5.43-.79 8.48-1.48c-5.7-10.36-6.36-44.23-6.36-44.23zm-6.36 18.29h-5.44v-14.05l5.44-.53v14.58zM236.4 12.452l3.3-.53v-6.74l-26 4 1 8h3c1 15-5 39-5 39l7 3c1.72-2.96 3.98-19.3 3.98-19.3l7.95-.4c0 4.37 2.65 18.68 2.65 18.68s5.43-.79 8.48-1.48c-5.7-10.36-6.36-44.23-6.36-44.23zm-6.36 18.29h-5.44v-14.05l5.44-.53v14.58zM337.216 12.452l3.3-.53v-6.74l-26 4 1 8h3c1 15-5 39-5 39l7 3c1.72-2.96 3.98-19.3 3.98-19.3l7.95-.4c0 4.37 2.65 18.68 2.65 18.68s5.43-.79 8.48-1.48c-5.7-10.36-6.36-44.23-6.36-44.23zm-6.36 18.29h-5.44v-14.05l5.44-.53v14.58zM140.736 50.215s4.504-9.937 4.107-40.94c3.445.265 7.42 0 7.42 0s5.83 21.331 12.586 27.028c-.132-20.271 0-31.12 0-31.12s4.505-1.473 6.89-.81c-.397 1.457-1.325 31.533 0 49.817-3.047.133-5.83 0-5.83 0L152.13 32.182s-1.855 10.762-.795 19.888c-3.18-.265-10.6-1.855-10.6-1.855zM176.641 18.02l11.262-1.856s2.385 5.382 2.783 40.518c6.36.025 11.13 0 11.13 0s-3.975-7.924-4.77-20.909-.265-21.596-.265-21.596 5.564-1.855 13.911-2.915c-.132-1.06 0-8.215 0-8.215-4.372 1.154-12.984 4.77-34.05 3.18V18.02zM251.898 46.903s4.24 1.457 4.24-3.975-4.372-6.227-8.48-6.227c-3.975 0-4.898 3.577-4.898 8.082s4.633 10.997 12.318 10.997 18.814-5.167 18.814-17.754c0-15.767-20.271-10.202-20.271-19.61 0 0-.393-5.697 4.705-5.697 5.1 0 4.702 1.855 3.377 4.108-1.325 2.252 1.06 5.432 3.842 5.432s6.227-1.192 6.227-7.022-7.154-8.612-11.924-8.612-15.237 3.312-15.237 15.369c0 14.31 20.007 9.142 20.007 21.067 0 0 .397 8.082-7.155 8.082-4.107 0-5.565-1.988-5.565-4.24zM274.687 56.693h10.202s-2.12-15.09-1.722-23.57c.132-.132 8.214 21.126 8.214 21.126l7.685-25.024s3.047 7.078 1.192 23.508c6.095.927 10.733 1.516 10.733 1.516s-7.95-32.785-2.253-51.202h-9.54s-5.034 25.042-7.552 30.739c-1.06-4.637-5.962-28.604-5.962-28.604L274.687 0s5.565 30.578 0 56.693zM56.67 23.452l.39 1.11c1.347-8.4.5-16.02.08-16.58-.88-1.19-11.69 1.18-14.95.29-3.25-.88-4.44-6.59-17.61-6.59-13.18 0-13.62 16.81-14.81 18.44-1.18 1.62-9.77 3.1-9.77 7.69 0 3.75 10.28 8.49 14.04 12.11.08-.52.12-1.04.15-1.56.05-1.16-.04-2.34-.15-3.5-.1-1.17-.29-2.34-.48-3.51l-.61-3.55c.937 1.672 1.045 4.233 1.383 6.081.25 1.363.485 2.73.691 4.1.279 1.85.415 3.78.052 5.627-.7 3.553-3.75 6.712-7.526 6.712-4.44 0-5.48-5.93-5.48-5.93-4.25 11.18 10.85 14.21 21.8 14.71 1.43-.91 2.55-2.28 3.42-3.79.97-1.7 1.65-3.59 2.23-5.52-.2 2-.63 4.02-1.54 5.88-.61 1.3-1.46 2.52-2.56 3.49.68.01 1.34.02 1.97.02 25.46 0 27.24-8.86 28.13-13.01.3-1.41.68-6.12 1.03-11.78-.14-.15-.27-.31-.4-.46-.46-.62-.92-1.24-1.32-1.89-1.62-2.6-2.89-5.35-4.04-8.15-1.14-2.8-2.17-5.64-3-8.54.62 1.38 1.2 2.77 1.84 4.13.6 1.38 1.22 2.75 1.86 4.1 1.31 2.7 2.59 5.42 4.19 7.93.29.5.62.96.95 1.42.12-1.92.22-3.92.32-5.91-.44-1.07-.83-2.15-1.22-3.24a72.82 72.82 0 01-1.87-6.44c-.52-2.18-.98-4.36-1.25-6.59l1.99 6.38c.69 2.11 1.34 4.23 2.07 6.32zm-29.09-17.2c1.21-1.15 2.95-2.33 4.69-2.33 1.33 0 4.59 1.72 3.81 3.57-.42.99-2.59.51-3.44.44-1.35-.1-2.79-.16-3.82.88-.66.67-1.51 2.09-2.64 1.66-.04-.01-.07-.03-.11-.04-1.54-.74.88-3.58 1.51-4.18zm-8.46.33c1.83 0 3.31 1.87 3.31 4.18 0 2.3-1.48 4.17-3.31 4.17s-3.31-1.87-3.31-4.17c0-2.31 1.48-4.18 3.31-4.18zm7.73 20.38c-7.12 0-11.78-7.36-11.9-8.96 0 0 .12-1.23 4.54-1.35 4.42-.12 5.89.49 8.47-1.6 2.58-2.08 7.61-6.63 8.72-6.13 1.1.49-2.71 18.04-9.83 18.04z"/></g></svg>