<?xml version="1.0" encoding="UTF-8"?>
<!-- Generator: Adobe Illustrator 24.0.2, SVG Export Plug-In . SVG Version: 6.00 Build 0)  -->
<svg version="1.1" id="Layer_1" xmlns="http://www.w3.org/2000/svg" xmlns:xlink="http://www.w3.org/1999/xlink" x="0px" y="0px" viewBox="0 0 43.3176308 43.3141479" style="enable-background:new 0 0 43.3176308 43.3141479;" xml:space="preserve">
<style type="text/css">
	.st0{fill:#5280EB;}
</style>
<g>
	<g>
		<g>
			<g>
				<path class="st0" d="M9.9138012,13.460165c0-0.342104,0.0807896-0.6818399,0.2423697-1.019208      c0.1610231-0.3372278,0.3571472-0.6339226,0.5872593-0.8903608c0.23067-0.2564383,0.4563246-0.5073051,0.6775217-0.7528791      c0.2206402-0.2457132,0.4106359-0.4887791,0.5705442-0.7293386c0.1593513-0.2406979,0.239584-0.4639845,0.239584-0.6702776      c0-0.7332392-0.5571718-1.0998583-1.6720734-1.0998583c-0.820715,0-1.6470013,0.2397232-2.478302,0.7186127V7.0811      c0.8898039-0.4788895,1.8381109-0.7184734,2.8449211-0.7184734c1.016839,0,1.8553839,0.2103324,2.5150757,0.6305795      c0.6602488,0.4203868,0.9900951,1.0655918,0.9900951,1.9356165c0,0.3769264-0.0835762,0.7513466-0.2512856,1.1232586      c-0.1671515,0.3720522-0.3799906,0.6999483-0.6390762,0.9838276c-0.2590847,0.2841578-0.5131559,0.5627432-0.7627687,0.8358974      c-0.2490559,0.2734318-0.4663534,0.5464468-0.6507769,0.8196001c-0.1849813,0.2731533-0.2769146,0.529314-0.2769146,0.7687588      H9.9138012z M11.7764282,14.9266415c0.2345686,0.2053185,0.3521328,0.503684,0.3521328,0.8945408      c0,0.3911343-0.1175642,0.6892223-0.3521328,0.8945389c-0.2345695,0.2053185-0.5282001,0.3079777-0.879775,0.3079777      c-0.3521328,0-0.6479912-0.1026592-0.8875761-0.3079777c-0.239584-0.2053165-0.3588181-0.5034046-0.3588181-0.8945389      c0-0.3908567,0.1192341-0.6892223,0.3588181-0.8945408c0.2395849-0.2053175,0.5354433-0.3079767,0.8875761-0.3079767      C11.2482281,14.6186647,11.5418587,14.721324,11.7764282,14.9266415z"/>
			</g>
		</g>
		<g>
			<path class="st0" d="M2.7000566,24.1229095c-0.3908563,0-0.7761409-0.1450043-1.0764568-0.4227543     c-0.4741535-0.4382153-0.636012-1.1129513-0.4123074-1.7187366l0.7446606-2.0083275     C0.6906149,18.5726395,0,16.7809124,0,14.8686972V7.6428704C0,3.4285591,3.4285591,0,7.6427312,0h7.225966     c4.2144499,0,7.6430101,3.4285591,7.6430101,7.6428704v7.2258267c0,4.2143106-3.4285603,7.6428709-7.6430101,7.6428709h-7.225966     c-0.3212099,0-0.6413054-0.0203362-0.9547148-0.0604534l-3.3238106,1.5253983     C3.151366,24.0748539,2.9245968,24.1229095,2.7000566,24.1229095z M7.6427312,1.711633     c-3.2703223,0-5.931098,2.6607759-5.931098,5.9312372v7.2258267c0,1.632514,0.6485486,3.1515055,1.8258533,4.277133     l0.4064572,0.3887672l-1.0240827,2.762598l3.5229998-1.6169128l0.2590852,0.0430412     c0.3047733,0.0508423,0.6215258,0.0766106,0.9407854,0.0766106h7.225966c3.2706003,0,5.9313765-2.6607761,5.9313765-5.9312372     V7.6428704c0-3.2704616-2.6607761-5.9312372-5.9313765-5.9312372H7.6427312z"/>
			<path class="st0" d="M40.1704445,43.3141479c-0.2501717,0-0.5025711-0.0534859-0.7402039-0.1631126l-4.1785126-1.9177856     c-0.401165,0.0553017-0.8026047,0.0823212-1.2196503,0.0823212h-8.9718647c-5.1201344,0-9.2855539-4.1654167-9.2855539-9.285553     v-8.9718647c0-0.6268177,0.0624037-1.2505722,0.1855383-1.8541298l1.6770878,0.342104     c-0.1002903,0.491148-0.1509933,0.9998455-0.1509933,1.5120258v8.9718647c0,4.1762848,3.3976364,7.5739212,7.5739212,7.5739212     h8.9718647c0.4125862,0,0.8053932-0.0324554,1.200985-0.0993156l0.259922-0.0440178l4.6526642,2.1355019     c0.0197792,0.0090561,0.033432,0.015461,0.0598984-0.0089149c0.0284157-0.0261841,0.022007-0.0435982,0.0150414-0.0621223     l-1.3528137-3.6458588l0.4070168-0.3887672c1.5032501-1.4366684,2.3312073-3.3759041,2.3312073-5.4604263v-15.753067     c0-4.1762848-3.3976364-7.5739212-7.5739212-7.5739212h-8.9718647c-1.0703278,0-2.1047192,0.2196655-3.0741978,0.6528664     L21.287878,7.7933068c1.1903992-0.5320992,2.4596367-0.8019099,3.7723351-0.8019099h8.9718647     c5.1201363,0,9.285553,4.1654196,9.285553,9.2855539v15.753067c0,2.3650589-0.8694649,4.5778656-2.4599152,6.291729     l0.9686432,2.61063c0.2485008,0.6762695,0.067421,1.4259453-0.4599457,1.912632     C41.0326691,43.1531258,40.6047592,43.3141479,40.1704445,43.3141479z"/>
			<g>
				<path class="st0" d="M38.2139359,24.8486271h-8.6676502c-0.4727612,0-0.8558178-0.3831959-0.8558178-0.8558178      c0-0.47262,0.3830566-0.8558159,0.8558178-0.8558159h8.6676502c0.4727592,0,0.8558159,0.3831959,0.8558159,0.8558159      C39.0697517,24.4654312,38.6866951,24.8486271,38.2139359,24.8486271z"/>
				<path class="st0" d="M23.9765129,24.8486271h-3.102335c-0.4727612,0-0.8558159-0.3831959-0.8558159-0.8558178      c0-0.47262,0.3830547-0.8558159,0.8558159-0.8558159h3.102335c0.4727612,0,0.8558159,0.3831959,0.8558159,0.8558159      C24.8323288,24.4654312,24.4492741,24.8486271,23.9765129,24.8486271z"/>
			</g>
			<g>
				<path class="st0" d="M38.2139359,20.2433205h-5.0830841c-0.4727592,0-0.8558159-0.3831959-0.8558159-0.8558178      c0-0.47262,0.3830566-0.8558159,0.8558159-0.8558159h5.0830841c0.4727592,0,0.8558159,0.3831959,0.8558159,0.8558159      C39.0697517,19.8601246,38.6866951,20.2433205,38.2139359,20.2433205z"/>
				<path class="st0" d="M28.3960037,20.2433205h-5.0610752c-0.4727592,0-0.8558159-0.3831959-0.8558159-0.8558178      c0-0.47262,0.3830566-0.8558159,0.8558159-0.8558159h5.0610752c0.4727592,0,0.8558159,0.3831959,0.8558159,0.8558159      C29.2518196,19.8601246,28.868763,20.2433205,28.3960037,20.2433205z"/>
			</g>
			<g>
				<path class="st0" d="M36.1097717,15.6381521H25.8653259c-0.4727592,0-0.8558159-0.3831949-0.8558159-0.8558168      c0-0.472621,0.3830566-0.8558159,0.8558159-0.8558159h10.2444458c0.4727631,0,0.8558197,0.3831949,0.8558197,0.8558159      C36.9655914,15.2549572,36.5825348,15.6381521,36.1097717,15.6381521z"/>
			</g>
			<path class="st0" d="M34.1827927,34.0591011H20.8741779c-0.4727612,0-0.8558159-0.383194-0.8558159-0.8558159     s0.3830547-0.8558159,0.8558159-0.8558159h13.3086147c0.4727631,0,0.8558159,0.383194,0.8558159,0.8558159     S34.6555557,34.0591011,34.1827927,34.0591011z"/>
			<g>
				<path class="st0" d="M38.2139359,29.4537945h-4.0311432c-0.4727592,0-0.8558159-0.3831959-0.8558159-0.8558159      c0-0.4726219,0.3830566-0.8558178,0.8558159-0.8558178h4.0311432c0.4727592,0,0.8558159,0.3831959,0.8558159,0.8558178      C39.0697517,29.0705986,38.6866951,29.4537945,38.2139359,29.4537945z"/>
				<path class="st0" d="M28.0040321,29.4537945h-7.1298542c-0.4727612,0-0.8558159-0.3831959-0.8558159-0.8558159      c0-0.4726219,0.3830547-0.8558178,0.8558159-0.8558178h7.1298542c0.4727612,0,0.8558159,0.3831959,0.8558159,0.8558178      C28.859848,29.0705986,28.4767933,29.4537945,28.0040321,29.4537945z"/>
			</g>
		</g>
	</g>
</g>
</svg>