<svg xmlns="http://www.w3.org/2000/svg" xmlns:xlink="http://www.w3.org/1999/xlink" viewBox="0 0 667.141 110.848"><defs><path id="a" d="M1.1 80.732c-.36-2.31-.6-5.277-.6-8.903V40.221c0-4.447.505-8.191 1.395-11.237.889-3.045 2.65-5.713 5.284-8.005 4.036-3.523 10.193-5.284 18.472-5.284H77.99l-.046 22.177H25.26v36.473h28.693V47.93h24.91v25.315c0 4.338-.333 7.797-1 10.377-.668 2.578-2.164 4.995-4.49 7.25-2.223 2.118-4.566 3.501-7.03 4.15-2.462.65-5.541.974-9.236.974H28.32c-5.952 0-10.973-.624-15.061-1.873-4.088-1.248-7.313-3.6-9.674-7.055A15.344 15.344 0 011.1 80.732zm112.23 14.941H88.729l-.206-62.224c0-2.601.688-4.868 1.562-6.802.873-1.934 2.235-3.876 4.085-5.827 3.254-3.423 9.215-5.134 17.883-5.134h32.941c3.186 0 5.867.342 8.043 1.027 2.175.684 4.308 1.984 6.399 3.902 2.363 2.157 3.948 4.51 4.753 7.06.805 2.55 1.18 5.82 1.18 9.757l-.003 58.346H139.71l-.002-31.428h-26.38l.002 31.323zm.144-48.455h26.066v-9.46h-26.066v9.46zm86.636 1.352l11.186 47.012h19.508L241.84 48.16l.104 47.627h25.12V16.01h-33.23l-12.37 50.882-11.601-51.197h-34.557v80.092h24.804V48.57zm249.28 18.322l-11.6-51.197h-34.56v80.092h24.809V48.57l11.236 47.012h19.485l11.175-47.447-.043 47.652h25.129V16.01h-33.258L449.39 66.892zm131.128-39.203c.806 2.55 1.053 5.793 1.053 9.73v58.374h-25.659l.007-31.428h-26.354l-.033 31.323h-24.6l.011-62.224c0-2.601.597-4.868 1.472-6.802.876-1.935 2.235-3.877 4.085-5.828 3.253-3.422 9.217-5.133 17.885-5.133h32.943c3.184 0 5.864.342 8.04 1.027 2.175.684 4.307 1.984 6.398 3.901 2.364 2.157 3.946 4.51 4.752 7.06zm-24.644 10.084h-26.07v9.46h26.07v-9.46zm110.56-22.078h-74.957v21.652h25.014l-.204 58.44h25.74l-.014-58.335h24.623l-.202-21.757z"/></defs><clipPath id="b"><use xlink:href="#a" overflow="visible"/></clipPath><g clip-path="url(#b)"><linearGradient id="c" gradientUnits="userSpaceOnUse" x1="39.666" y1="15.69" x2="39.666" y2="95.993"><stop offset="0" stop-color="#00612c"/><stop offset=".258" stop-color="#207931"/><stop offset=".808" stop-color="#6fb53c"/></linearGradient><path d="M3.57 87.065c2.36 3.455 5.585 5.806 9.673 7.055 4.088 1.248 9.11 1.873 15.062 1.873H57.09c3.695 0 6.775-.324 9.237-.974 2.464-.65 4.806-2.033 7.03-4.15 2.326-2.255 3.821-4.672 4.49-7.25.667-2.58 1-6.04 1-10.377V47.927h-24.91V74.34H25.244V37.868h52.683l.046-22.178H25.635c-8.28 0-14.437 1.762-18.473 5.285-2.633 2.292-4.395 4.96-5.283 8.004C.989 32.026.483 35.77.483 40.216v31.609c0 3.626.24 6.593.6 8.903a15.344 15.344 0 002.487 6.337z" fill="url(#c)"/><linearGradient id="d" gradientUnits="userSpaceOnUse" x1="126.929" y1="15.682" x2="126.929" y2="95.774"><stop offset="0" stop-color="#00612c"/><stop offset=".258" stop-color="#207931"/><stop offset=".808" stop-color="#6fb53c"/></linearGradient><path d="M113.312 64.346h26.38l.002 31.428h25.656l.002-58.347c0-3.935-.375-7.206-1.18-9.757-.804-2.55-2.39-4.903-4.753-7.06-2.09-1.917-4.224-3.217-6.398-3.901-2.176-.685-4.858-1.027-8.043-1.027h-32.941c-8.668 0-14.63 1.71-17.883 5.133-1.85 1.951-3.213 3.893-4.086 5.828-.874 1.934-1.561 4.2-1.561 6.802l.205 62.224h24.601V64.346zm.145-26.592h26.067v9.46h-26.067v-9.46z" fill="url(#d)"/><linearGradient id="e" gradientUnits="userSpaceOnUse" x1="221.169" y1="15.69" x2="221.169" y2="95.783"><stop offset="0" stop-color="#00612c"/><stop offset=".258" stop-color="#207931"/><stop offset=".808" stop-color="#6fb53c"/></linearGradient><path fill="url(#e)" d="M200.094 48.566l11.186 47.011h19.507l11.036-47.422.104 47.628h25.12V16.005h-33.23l-12.37 50.883-11.6-51.198H175.29v80.093h24.804z"/><linearGradient id="f" gradientUnits="userSpaceOnUse" x1="449.109" y1="15.69" x2="449.109" y2="95.783"><stop offset="0" stop-color="#7c7b7b"/><stop offset=".191" stop-color="#807f7f"/><stop offset=".39" stop-color="#8c8c8c"/><stop offset=".591" stop-color="#a1a0a0"/><stop offset=".794" stop-color="#bdbdbd"/><stop offset=".887" stop-color="#cdcdcd"/></linearGradient><path fill="url(#f)" stroke="#717070" stroke-miterlimit="10" d="M449.374 66.888l-11.6-51.198h-34.56v80.093h24.808V48.566l11.237 47.011h19.485l11.174-47.446-.043 47.652h25.13V16.005h-33.259z"/><linearGradient id="g" gradientUnits="userSpaceOnUse" x1="543.235" y1="15.696" x2="543.235" y2="95.789"><stop offset="0" stop-color="#7c7b7b"/><stop offset=".191" stop-color="#807f7f"/><stop offset=".39" stop-color="#8c8c8c"/><stop offset=".591" stop-color="#a1a0a0"/><stop offset=".794" stop-color="#bdbdbd"/><stop offset=".887" stop-color="#cdcdcd"/></linearGradient><path d="M575.75 20.625c-2.092-1.917-4.223-3.218-6.399-3.901-2.175-.685-4.855-1.028-8.04-1.028H528.37c-8.669 0-14.632 1.711-17.886 5.134-1.85 1.951-3.209 3.893-4.084 5.828a16.345 16.345 0 00-1.473 6.801l-.01 62.225h24.6l.033-31.323h26.354l-.007 31.428h25.658V37.414c0-3.936-.246-7.179-1.052-9.729-.806-2.55-2.388-4.903-4.752-7.06zm-19.893 26.603h-26.07v-9.46h26.07v9.46z" fill="url(#g)" stroke="#717070" stroke-miterlimit="10"/><linearGradient id="h" gradientUnits="userSpaceOnUse" x1="629.04" y1="15.69" x2="629.04" y2="95.783"><stop offset="0" stop-color="#7c7b7b"/><stop offset=".191" stop-color="#807f7f"/><stop offset=".39" stop-color="#8c8c8c"/><stop offset=".591" stop-color="#a1a0a0"/><stop offset=".794" stop-color="#bdbdbd"/><stop offset=".887" stop-color="#cdcdcd"/></linearGradient><path fill="url(#h)" stroke="#717070" stroke-miterlimit="10" d="M666.417 15.69H591.46v21.652h25.014l-.203 58.44h25.74l-.014-58.335h24.623z"/></g><linearGradient id="i" gradientUnits="userSpaceOnUse" x1="168.431" y1="15.69" x2="168.431" y2="71.825"><stop offset=".192" stop-color="#6fb53c"/><stop offset=".742" stop-color="#209938"/><stop offset="1" stop-color="#008d36"/></linearGradient><path d="M.483 15.69v56.135c1.338-6.242 313.667-29.867 330.705-28.067 9.927 1.048 2.562-28.068 2.562-28.068H.483z" clip-path="url(#b)" fill="url(#i)"/><g clip-path="url(#b)"><linearGradient id="j" gradientUnits="userSpaceOnUse" x1="497.912" y1="13.192" x2="497.912" y2="48.425"><stop offset=".113" stop-color="#cdcdcd"/><stop offset=".206" stop-color="#bdbdbd"/><stop offset=".409" stop-color="#a1a0a0"/><stop offset=".61" stop-color="#8c8c8c"/><stop offset=".809" stop-color="#807f7f"/><stop offset="1" stop-color="#7c7b7b"/></linearGradient><path d="M350.216 13.192c-8.936 0-16.742 5.99-19.111 14.605-2.765 10.058-3.798 21.95 5.811 20.508 69.778-10.471 135.55-18.34 195.452-20.674 52.197-2.035 98.591-1.324 134.268.038V13.194c-111.357.001-276.01-.001-316.42-.002z" fill="url(#j)"/></g><g fill="none" stroke-miterlimit="10"><path d="M1.1 80.732c-.36-2.31-.6-5.277-.6-8.903V40.221c0-4.447.505-8.191 1.395-11.237.889-3.045 2.65-5.713 5.284-8.005 4.036-3.523 10.193-5.284 18.472-5.284H77.99l-.046 22.177H25.26v36.473h28.693V47.93h24.91v25.315c0 4.338-.333 7.797-1 10.377-.668 2.578-2.164 4.995-4.49 7.25-2.223 2.118-4.566 3.501-7.03 4.15-2.462.65-5.541.974-9.236.974H28.32c-5.952 0-10.973-.624-15.061-1.873-4.088-1.248-7.313-3.6-9.674-7.055A15.344 15.344 0 011.1 80.732zm112.23 14.941H88.729l-.206-62.224c0-2.601.688-4.868 1.562-6.802.873-1.934 2.235-3.876 4.085-5.827 3.254-3.423 9.215-5.134 17.883-5.134h32.941c3.186 0 5.867.342 8.043 1.027 2.175.684 4.308 1.984 6.399 3.902 2.363 2.157 3.948 4.51 4.753 7.06.805 2.55 1.18 5.82 1.18 9.757l-.003 58.346H139.71l-.002-31.428h-26.38l.002 31.323zm.144-48.455h26.066v-9.46h-26.066v9.46zm86.636 1.352l11.186 47.012h19.508L241.84 48.16l.104 47.627h25.12V16.01h-33.23l-12.37 50.882-11.601-51.197h-34.557v80.092h24.804V48.57z" stroke="#00612d"/><path d="M449.39 66.892l-11.6-51.197h-34.56v80.092h24.809V48.57l11.236 47.012h19.485l11.175-47.447-.043 47.652h25.129V16.01h-33.258L449.39 66.892zm131.128-39.203c.806 2.55 1.053 5.793 1.053 9.73v58.374h-25.659l.007-31.428h-26.354l-.033 31.323h-24.6l.011-62.224c0-2.601.597-4.868 1.472-6.802.876-1.935 2.235-3.877 4.085-5.828 3.253-3.422 9.217-5.133 17.885-5.133h32.943c3.184 0 5.864.342 8.04 1.027 2.175.684 4.307 1.984 6.398 3.901 2.364 2.157 3.946 4.51 4.752 7.06zm-24.644 10.084h-26.07v9.46h26.07v-9.46zm110.56-22.078h-74.957v21.652h25.014l-.204 58.44h25.74l-.014-58.335h24.623l-.202-21.757z" stroke="#727070"/></g><g><linearGradient id="k" gradientUnits="userSpaceOnUse" x1="352" y1="99.016" x2="320.268" y2="11.831"><stop offset="0" stop-color="#fff"/><stop offset=".235" stop-color="#d2d2d1"/><stop offset=".598" stop-color="#919190"/><stop offset=".864" stop-color="#686868"/><stop offset="1" stop-color="#595958"/></linearGradient><circle cx="336.134" cy="55.424" r="46.377" fill="url(#k)"/><linearGradient id="l" gradientUnits="userSpaceOnUse" x1="4.637" y1="-388.313" x2="92.343" y2="-322.22" gradientTransform="rotate(27.999 -631.306 426.935)"><stop offset=".163" stop-color="#ececec"/><stop offset=".409" stop-color="#6a6a6a"/><stop offset=".601" stop-color="#7a7979"/><stop offset=".744" stop-color="#7a7979"/><stop offset="1" stop-color="#7a7979"/></linearGradient><path d="M310.346 103.926c-26.744-14.22-36.933-47.546-22.714-74.29 14.22-26.744 47.546-36.934 74.29-22.714 26.744 14.22 36.934 47.546 22.714 74.29-14.22 26.744-47.546 36.933-74.29 22.714zm47.2-88.773c-22.206-11.806-49.876-3.346-61.682 18.86-11.807 22.205-3.347 49.875 18.858 61.681s49.876 3.347 61.682-18.859 3.347-49.875-18.859-61.682z" fill="url(#l)" stroke="#6f6f6e" stroke-miterlimit="10"/><radialGradient id="m" cx="336.134" cy="55.424" r="41.447" gradientUnits="userSpaceOnUse"><stop offset="0" stop-color="#063"/><stop offset="0" stop-color="#056932"/><stop offset="0" stop-color="#2b802d"/><stop offset="0" stop-color="#4b9429"/><stop offset="0" stop-color="#65a425"/><stop offset="0" stop-color="#7ab122"/><stop offset="0" stop-color="#88b920"/><stop offset="0" stop-color="#90be1f"/><stop offset="0" stop-color="#93c01f"/><stop offset=".21" stop-color="#90be1f"/><stop offset=".368" stop-color="#86b821"/><stop offset=".51" stop-color="#76ae23"/><stop offset=".641" stop-color="#5fa026"/><stop offset=".765" stop-color="#428e2a"/><stop offset=".882" stop-color="#1e792f"/><stop offset=".966" stop-color="#063"/></radialGradient><circle cx="336.134" cy="55.424" r="41.439" fill="url(#m)"/><radialGradient id="n" cx="336.134" cy="55.424" r="41.447" gradientUnits="userSpaceOnUse"><stop offset="0" stop-color="#063"/><stop offset="0" stop-color="#056932"/><stop offset="0" stop-color="#2b802d"/><stop offset="0" stop-color="#4b9429"/><stop offset="0" stop-color="#65a425"/><stop offset="0" stop-color="#7ab122"/><stop offset="0" stop-color="#88b920"/><stop offset="0" stop-color="#90be1f"/><stop offset="0" stop-color="#93c01f"/><stop offset=".167" stop-color="#8fbd1f"/><stop offset=".332" stop-color="#83b621"/><stop offset=".496" stop-color="#6fa823"/><stop offset=".661" stop-color="#539626"/><stop offset=".825" stop-color="#2f7e2a"/><stop offset=".986" stop-color="#04622f"/><stop offset="1" stop-color="#005f2f"/></radialGradient><path d="M336.171 13.977v3a38.505 38.505 0 0118.009 4.507c18.714 9.95 25.844 33.271 15.894 51.985-6.691 12.585-19.71 20.402-33.976 20.402a38.51 38.51 0 01-18.01-4.507c-9.065-4.82-15.711-12.882-18.713-22.701-3.002-9.819-2-20.219 2.82-29.285 6.69-12.583 19.709-20.4 33.975-20.401l.001-3m-.001 0c-14.831 0-29.176 7.984-36.625 21.993-10.744 20.207-3.072 45.299 17.135 56.043a41.253 41.253 0 0019.418 4.858c14.831 0 29.177-7.985 36.625-21.993 10.744-20.208 3.072-45.299-17.135-56.043a41.25 41.25 0 00-19.418-4.858z" fill="url(#n)"/><linearGradient id="o" gradientUnits="userSpaceOnUse" x1="1507.099" y1="1580.318" x2="1508.684" y2="1561.431" gradientTransform="matrix(1.04819 -1.0304 1.29575 1.3181 -3291.489 -482.856)"><stop offset="0" stop-color="#93c01f"/><stop offset=".588" stop-color="#93c01f" stop-opacity=".7"/><stop offset=".637" stop-color="#9cc532" stop-opacity=".724"/><stop offset=".735" stop-color="#b4d363" stop-opacity=".771"/><stop offset=".872" stop-color="#d9e9b1" stop-opacity=".838"/><stop offset="1" stop-color="#fff" stop-opacity=".9"/></linearGradient><path d="M344.91 17.816c7.569 6.316 4.576 18.671-6.684 27.597S311.7 56.455 304.132 50.14s-4.577-18.671 6.684-27.597 26.524-11.042 34.093-4.726z" opacity=".73" fill="url(#o)"/><radialGradient id="p" cx="1504.116" cy="1567.078" r="15.71" fx="1503.096" fy="1565.662" gradientTransform="matrix(2.08471 .0498 .42484 1.7223 -3480.062 -2744.055)" gradientUnits="userSpaceOnUse"><stop offset="0" stop-color="#fff"/><stop offset=".79" stop-color="#fff" stop-opacity="0"/></radialGradient><path d="M343.662 18.39c7.387 6.222 4.806 17.986-5.765 26.277s-25.13 9.969-32.517 3.747c-7.388-6.221-4.807-17.986 5.765-26.277s25.13-9.968 32.517-3.747z" opacity=".65" fill="url(#p)"/></g></svg>