<svg xmlns="http://www.w3.org/2000/svg" viewBox="0 0 419.9 119"><g fill="#fff"><path d="M27.8 48.1h12v9.8l19 .5V3.5c0-.6-.3-1.1-.8-1.1H40.6c-.5 0-.8.4-.8 1.1v26h-12v-26c0-.6-.3-1.1-.8-1.1H9.8c-.5 0-.8.4-.8 1.1v53.7l18.8.5v-9.6zM102.8 3.3c-.2-.6-.5-.8-.9-.8H83.2c-.4 0-.7.2-.9.8L66.4 58.6l52.3 1.4-15.9-56.7zM87.5 49.8l4.9-31.3 4.8 31.3h-9.7zM192.2 59.2l8.3-12.1 6.3 15.1 19.5.5-14.4-32.1 18.5-27c.5-.7.2-1.3-.5-1.3h-19.6c-.4 0-.8.3-.9.6l-17.1 27.5v-27c0-.6-.3-1.1-.8-1.1h-16c-.5 0-.8.4-.8 1.1v57.9l17.6.5-.1-2.6zM284.6 52.5c0-28.8-32.4-18.5-32.4-29.9 0-3.3 2.8-4.7 6.5-4.7 4.4 0 8.8 2 13.1 6.5.2.3.6.4.9.2.1-.1.2-.2.2-.3l8.8-12.2c.3-.4.3-1.1-.1-1.5C275.5 3.3 268.2 0 259.4 0c-12 0-24.9 5.9-24.9 24.8 0 30.2 32.8 18.2 32.8 30.6 0 3.8-3.1 5.7-7.5 5.7-5.5 0-11-2.8-16.5-10.3-.3-.4-.8-.5-1.1 0L233.6 63l48.7 1.3c1.6-3.8 2.3-7.8 2.3-11.8zM324.5 3.3c-.2-.6-.5-.8-.9-.8h-18.8c-.4 0-.7.2-.9.8l-17.5 61 55.6 1.4-17.5-62.4zm-15.2 46.5l5-31.3 4.8 31.3h-9.8zM376.8 35.5l4.9 31.3 20.3.5 17.8-63.7c.2-.7-.1-1.2-.6-1.2h-16.7c-.5 0-.8.3-.9 1l-8.9 37-7.2-37c-.1-.5-.4-1-.9-1H369c-.5 0-.8.4-.9 1l-7.2 37-8.9-37c-.1-.6-.4-1-.9-1h-16.7c-.5 0-.8.4-.6 1.2L351.2 66l20.7.5 4.9-31zM166.5 55.3c0-.1-.1-.3-.2-.3s-.2 0-.3.1c-2.4 3.5-6.3 5.6-10.6 5.5-9.2 0-13.6-9.2-13.6-21.4 0-11.1 3.6-20.9 13.8-20.9 4.2-.2 8.1 1.9 10.4 5.3.1.1.3.2.4.1.1-.1.1-.1.1-.2V3.1c0-.5-.3-.9-.7-1.1-3.5-1.2-7.3-1.8-11-1.8-20.4 0-33.5 17.9-33.5 40.5-.1 6.7 1.2 13.3 3.8 19.4l41.4 1.1v-5.9zM30.8 78.7c0 .6.3 1 .8 1h17.3c.5 0 .8-.4.8-1V61.4l-19-.5.1 17.8zM.8 79.7H18c.5 0 .9-.4.9-1V60.5L0 60.1v18.6c0 .6.3 1 .8 1zM53.2 79.7h17.3c.5 0 .8-.4.9-.8l2.2-9.6H93l2.2 9.6c.1.5.5.8.9.8h17.3c.6 0 .8-.5.6-1.3l-4.4-15.6-52.3-1.4-4.9 16.9c-.1.9.2 1.4.8 1.4zM203.5 79c.1.4.5.7.9.7h18.1c.6 0 .9-.5.6-1.3l-5.8-12.8-19.5-.5 5.7 13.9zM166.4 79.7h16c.5 0 .8-.4.8-1V64.8l-17.6-.5v14.3c0 .7.3 1.1.8 1.1zM223.3 69.3c6.2 8.1 15.8 12.9 26 12.9 10.3 0 19.9-5 24.1-15l-48.7-1.3-1.4 2c-.3.4-.3 1 0 1.4zM274.9 79.7h17.3c.5 0 .9-.4 1-.8l2.2-9.6h19.4l2.2 9.6c.1.5.5.8 1 .8h17.3c.6 0 .8-.5.6-1.3l-2.8-9.8-55.6-1.4-3.2 11.2c-.3.8.1 1.3.6 1.3zM374.2 78.8c.1.5.4.9.9.9h14.7c.5 0 .8-.3.9-.9l2.4-8.6-20.3-.5 1.4 9.1zM345.9 79.7h14.7c.5 0 .8-.4.9-.9l1.5-9.3-20.7-.5 2.8 9.9c0 .5.3.8.8.8zM146.1 82.6c3.6 0 7.2-.5 10.6-1.6.5-.2.8-.6.8-1.1V64.1L116.1 63c5.3 12 15.8 19.6 30 19.6zM26 103.8h-6.5v-3c0-.5-.3-.8-.9-.8h-1.3c-.6 0-.9.3-.9.8v13.3c0 .5.3.8.9.8h1.4c.6 0 .9-.3.9-.8v-3.9h-1.9v-4H26v8.4c0 3-1.8 4.5-5.5 4.5h-5.3c-3.7 0-5.5-1.5-5.5-4.5v-14.3c0-3 1.8-4.5 5.5-4.5h5.3c3.7 0 5.5 1.5 5.5 4.5v3.5zM95.8 119l-.8-3.5h-5.8l-.8 3.5h-6.5l6.2-23.3h8l6.2 23.3h-6.5zm-5.5-8h3.8l-1.8-8.4-2 8.4zM164.7 119h-5.9V95.8h7.1l4 12.4 3.9-12.4h7.1V119h-5.8v-14.7l-3 9.8h-4.5l-3-9.7.1 14.6zM238.9 95.8h6.6V119h-6.6V95.8zM314.4 95.8h6V119h-5.6l-5.4-12.2V119h-6V95.8h5.6l5.4 12.4V95.8zM394.5 103.8H388v-3c0-.5-.3-.8-.9-.8h-1.4c-.6 0-.9.3-.9.8v13.3c0 .5.3.8.9.8h1.3c.6 0 .9-.3.9-.8v-3.9H386v-4h8.5v8.4c0 3-1.8 4.5-5.5 4.5h-5.3c-3.7 0-5.5-1.5-5.5-4.5v-14.3c0-3 1.8-4.5 5.5-4.5h5.3c3.7 0 5.5 1.5 5.5 4.5v3.5z"/></g></svg>