<svg xmlns="http://www.w3.org/2000/svg" viewBox="0 0 35.4 35.36"><g fill="none" stroke="#e8ce3a" stroke-width="2"><path d="M23.6 17.63a6 6 0 11-6 6 6 6 0 016-6z" stroke-miterlimit="22.93"/><path d="M34.4 9v14.29a1.27 1.27 0 01-1.23 1.23l-3 .13m-13.09 0l-14.85-.13A1.25 1.25 0 011 23.29V2.23A1.23 1.23 0 012.23 1H26.4m8 8h-6.77a1.23 1.23 0 01-1.23-1.23V1l8 8zM5.3 6.35h16.77M5.3 10.18h16.77M5.3 14h16.77" stroke-linecap="round" stroke-linejoin="round"/><path d="M23.6 20.79a2.88 2.88 0 11-2.88 2.88 2.88 2.88 0 012.88-2.88z" stroke-miterlimit="22.93"/><path stroke-linecap="round" stroke-linejoin="round" d="M18.38 26.7l-2.8 5.09 5.28 2.57 2.8-4.35 2.79 4.35 5.36-2.55-2.83-5.4"/></g></svg>