<svg xmlns="http://www.w3.org/2000/svg" viewBox="0 0 604.124 172.318"><g fill="#fff"><path d="M280.284 26.317v57.44h-16.58v-40.61l-13.77 40.61h-17.07l-13.77-40.61v40.61h-16.59v-57.44h26.71l12.18 35.62 12.19-35.62zM313.634 37.877v10.29l24.74-.17v11.47h-24.74v12.28h27.06v12.01h-44v-57.44h44v11.56zM406.244 83.087c-.33-.92-8.16-22.37-9.66-25.03-.87-1.55-1.95-2.44-2.76-2.94 2.64-1.05 8.7-4.4 8.7-13.09 0-14.92-14.51-15.7-14.68-15.71h-33.54v57.44h16.94v-23.13c9.77.19 11.24 5.84 11.32 6.14l6.09 16.99h17.84l-.25-.67zm-35-33.26v-12.28h9.02c.26.01 6.25.37 6.25 6.12 0 5.6-6.01 6.14-6.22 6.16h-9.05zM603.874 83.087c-.33-.92-8.16-22.37-9.66-25.03-.87-1.55-1.95-2.44-2.76-2.94 2.65-1.05 8.7-4.4 8.7-13.09 0-14.92-14.51-15.7-14.68-15.71h-33.53v57.44h16.93v-23.13c9.78.19 11.24 5.84 11.32 6.14l6.09 16.99h17.84l-.25-.67zm-25.95-33.26h-9.05v-12.28h9.03c.25.01 6.24.37 6.24 6.12 0 5.6-6 6.14-6.22 6.16zM475.584 83.757h-22.17l-17.93-24.85v24.85h-17.02v-57.44h17.02v20.71l17.33-20.71h20.62l-21.95 26.18zM536.164 26.317v41.25c0 .66-.3 16.19-26.26 16.19s-26.26-15.53-26.26-16.19v-41.25h17.34v38.11c0 .05-.09 3.49 2.24 5.9 1.53 1.58 3.78 2.39 6.68 2.39s5.15-.81 6.69-2.4c2.33-2.42 2.23-5.84 2.23-5.87v-38.13h17.34zM248.954 120.897v28.73l-.34.12c-.22.07-5.64 1.86-19.92 1.86-13.02 0-28.54-5.25-28.54-30.21 0-23.86 23.78-25.72 31.07-25.72 6.89 0 13.71 1.23 13.78 1.24l.41.08v6.99l-.74-.39c-.05-.03-5.74-2.98-13.61-2.98-7.42 0-24.67 2.24-24.67 23.02 0 23.18 23.33 23.45 24.33 23.45 4.83 0 10.22-1.3 11.66-1.66v-19.64h-14.02v-4.89h20.59zM602.324 120.897v28.73l-.34.12c-.22.07-5.65 1.86-19.92 1.86-13.02 0-28.54-5.25-28.54-30.21 0-23.86 23.78-25.72 31.07-25.72 6.89 0 13.71 1.23 13.77 1.24l.41.08v6.99l-.73-.39c-.06-.03-5.74-2.98-13.62-2.98-7.41 0-24.67 2.24-24.67 23.02 0 23.18 23.34 23.45 24.33 23.45 4.84 0 10.23-1.3 11.67-1.66v-19.64h-14.02v-4.89h20.59zM297.664 95.677h-6.46l-24.25 55.92h7.01l6.15-15h28.63l6.15 15h7.02l-24.25-55.92zm-14.95 35.23l11.73-27.69 11.96 27.69h-23.69zM405.154 95.677v55.92h-6.94v-46.51l-20.33 46.51h-7.47l-20.33-46.51v46.51h-6.93v-55.92h10.55l20.45 47.63 20.44-47.63zM441.414 95.677h5.85v55.93h-5.85zM527.154 95.677v55.92h-8.19l-.15-.24-28.75-46.25v46.49h-6.42v-55.92h9.33l27.77 45.79v-45.79z"/></g><path fill="#ffc803" stroke="#ffc803" stroke-miterlimit="10" d="M177.984 106.797l-33.06 1.85 14.65 38.5-35.17-20.44 2.85 44.16-25.79-29.8-10.16 28.11-10.62-29.04-24.21 26.32 5.66-39.4-38.45 15.94 24.03-30.62-39.97 2.59 28.25-17.51-34.16-11.98 40.26-8.75-28.26-28.26 32.15 7.31-13.94-34.99 34.82 23.2-1.42-36.86 21.33 28.6 21.74-34.26 3.55 31.71 23.59-19.34-8.53 35.04 40-15.06-25.37 31 42.03 4.04-36.79 23.26z"/><linearGradient id="a" gradientUnits="userSpaceOnUse" x1="119.717" y1="124.219" x2="74.368" y2="59.153"><stop offset="0" stop-color="#fff2ac"/><stop offset="1" stop-color="#fefaf9"/></linearGradient><path d="M94.198 132.754c-26.553 0-48.156-20.254-48.156-45.15 0-24.895 21.603-45.148 48.156-45.148s48.156 20.253 48.156 45.149c0 24.895-21.603 45.149-48.156 45.149z" fill="url(#a)"/><path d="M94.822 90.257a1 1 0 01-.985-1.18c.076-.429.113-1.348-.15-1.916-10.78-.039-15.598-1.322-15.598-8.393 0-11.26 15.218-15.198 15.866-15.36a1 1 0 01.486 1.94c-.143.036-14.352 3.721-14.352 13.42 0 4.797 2.04 6.393 14.109 6.393a1 1 0 01.707.293c1.338 1.338.949 3.716.9 3.983a1 1 0 01-.983.82zM128.359 84.255a1 1 0 01-1-1c0-10.306-2.625-15.316-8.025-15.316-6.89 0-8.88 8.994-8.9 9.085a1 1 0 01-1.957-.412c.023-.107 2.339-10.673 10.857-10.673 6.652 0 10.025 5.826 10.025 17.316a1 1 0 01-1 1zM72.503 80.378a1 1 0 01-1-1c0-10.189-2.06-14.732-6.683-14.732-5.498 0-8.684 7.25-8.716 7.323a1.001 1.001 0 01-1.837-.791c.15-.349 3.753-8.532 10.553-8.532 7.783 0 8.683 9.55 8.683 16.732a1 1 0 01-1 1zM56.894 100.745a1 1 0 01-.44-1.898c5.056-2.473 7.41-8.427 7.433-8.487a1 1 0 011.867.719c-.106.274-2.647 6.741-8.422 9.564a.998.998 0 01-.438.102zM129.456 102.574a.997.997 0 01-.692-.278c-3.048-2.922-5.851-9.935-5.97-10.232a1 1 0 011.86-.737c.027.069 2.76 6.905 5.494 9.525a1 1 0 01-.692 1.722z" fill="#1c1703"/><path d="M92.634 120.014c-13.752 0-28.752-13.916-31.648-21.45a2.117 2.117 0 01.417-2.2 2.134 2.134 0 012.166-.616l.48.137c11.578 3.3 22.513 6.415 60.552 1.019.746-.105 1.46.22 1.87.849.406.622.413 1.4.02 2.03-2.963 4.745-14.162 20.23-33.857 20.23zM62.98 97.665a.13.13 0 00-.1.048c-.054.059-.034.11-.025.133 2.722 7.084 16.836 20.168 29.78 20.168 18.487 0 29.13-14.484 32.077-19.158-38.305 5.478-49.43 2.308-61.21-1.048l-.479-.136c-.009-.002-.024-.007-.043-.007zM116.996 90.241a4.27 4.27 0 01-1.026-.128c-1.015-.25-1.915-1.04-2.468-2.167-1.252-2.556-1.477-8.961.776-12.576 1.007-1.614 2.418-2.467 4.08-2.467 1.621 0 2.905.9 3.713 2.6 1.685 3.55.908 9.811-1.6 12.886-.998 1.224-2.185 1.852-3.475 1.852z" fill="#1c1703"/><path d="M116.096 82.308a2.01 2.01 0 01-.483-.06c-.477-.118-.9-.49-1.161-1.02-.59-1.203-.695-4.218.365-5.92.474-.76 1.138-1.16 1.92-1.16.764 0 1.368.422 1.748 1.223.793 1.67.427 4.618-.753 6.065-.47.576-1.028.872-1.636.872z" fill="#fdfaf1"/><path d="M62.05 87.548a4.27 4.27 0 01-1.026-.128c-1.016-.25-1.915-1.04-2.468-2.168-1.252-2.554-1.478-8.96.776-12.574 1.007-1.615 2.418-2.469 4.08-2.469 1.621 0 2.905.9 3.713 2.601 1.685 3.55.908 9.811-1.6 12.886-.997 1.224-2.184 1.852-3.475 1.852z" fill="#1c1703"/><path d="M61.034 79.673a2.01 2.01 0 01-.483-.06c-.478-.118-.901-.49-1.162-1.02-.59-1.203-.695-4.218.365-5.92.474-.76 1.138-1.16 1.92-1.16.764 0 1.368.422 1.748 1.223.793 1.67.428 4.618-.753 6.065-.47.576-1.028.872-1.635.872z" fill="#fdfaf1"/></svg>