<svg xmlns="http://www.w3.org/2000/svg" viewBox="0 0 72 72"><ellipse cx="42.435" cy="62" rx="29.565" ry="10" fill="#fbb03b"/><ellipse cx="30.551" cy="31" rx="30.551" ry="31" fill="#fff"/><path d="M27.156 53.733c-5.725-5.549-9.008-13.482-9.504-22.044-.347-5.976 1.66-14.633 8.146-22.045 2.736-3.125 6.98-6.103 11.833-8.798A30.19 30.19 0 0030.551 0C13.678 0 0 13.88 0 31c0 17.12 13.678 31 30.55 31 2.945 0 5.788-.431 8.482-1.22-4.665-1.907-8.983-4.243-11.876-7.047z" fill="#f15a24"/><path d="M27.156 31.689c0 13.349 7.806 21.998 16.212 27.45C53.836 54.221 61.101 43.475 61.101 31c0-12.556-7.361-23.361-17.94-28.234-8.537 6.939-16.005 16.538-16.005 28.923z" fill="#f15a24"/></svg>