<svg xmlns="http://www.w3.org/2000/svg" viewBox="0 0 108 30"><g fill-rule="evenodd" clip-rule="evenodd"><path d="M8.5 6.7h95.3c2.6 0 5.1 1.9 3.9 5.9l-1.4 5c-.8 3.9-3.6 5.7-6.6 5.7l-95.9-.2c-3.1 0-4.3-2.6-3.6-5.7l1.4-5c.7-3.2 2.7-5.7 6.9-5.7z" fill="#2184c7"/><path d="M5.8 20c.5-1.6 1.4-4 1.8-5.5.5-1.5.8-2.9 1.3-4.4h5.7c.6.2.8.8 1.1 1.1 0 2.7-1.3 5.7-3.4 6.3H9.2c-.3.8-.5 1.6-.9 2.5-.6 0-1.7-.1-2.5 0zM19.9 10c-.4 1.4-2 6.7-2.3 7.5H20c.1-.6.5-2 .8-2.5.3-.2 1.8-.1 2.5-.1l.1.1c-.4 1.8-1.1 3.1-1.5 5h-7.5c.4-1.3 2.2-7.2 3-9.9 1.1-.1 2.5-.1 2.5-.1zM26.1 17.5c-.2.5-.8 2.3-.9 2.5h-2.5v-.2c.2-.8.4-1.2.7-2.3.8-2.9 1.7-7.5 4.4-7.5 1.1 0 3.6-.1 3.8 0 .3.1.7.5.9.9.4.5.3 1.5.1 2.1-.6 1.7-1.3 3.5-1.7 5.2-.1.4-.3 1.7-.6 1.9H28c-.1.1 0 0-.3 0v-.2c.3-.8.5-1.5.8-2.3-.9-.1-1.7-.1-2.4-.1zM35.5 15h2.3c.4-1.7 1.3-3.4 1.5-5H42c-.4 1.2-.7 2.1-1.1 3.5-.3.9-.6 2.2-.8 2.5-.3.4-1.1 1.1-1.6 1.3-.4.2-.8 0-1.2.2-.2.1-.7 2.2-.9 2.6-.5 0-2.3.1-2.5-.1-.1-.2 0-.5.7-2.5-2.5 0-2-1.7-.2-7.5 1.3 0 2.7-.1 2.6.2-.5 1.3-.6 2.3-1.5 4.8zM46.6 10.3c-.3 1-.6 2.1-.9 2.9h-3.4c.1-.5.6-2.2.9-2.9h3.4z" fill="#fffbf6"/><path d="M10.7 12.5c-.3.8-.6 1.7-.8 2.5h2.2c.3-.8.6-1.6.9-2.5h-2.3zM27.7 12.5c-.2.9-.4 1.5-.8 2.4h2.3c.2-.4.7-2.1.7-2.4h-2.2z" fill="#2184c7"/><path d="M47.7 15.6c-.3 1.1-.7 2.3-.9 3.2-.1.3-.2 1.1-.4 1.1h-2.5c0 .5.1-.7.5-1.9.6-1.9 1-4.1 2.8-4.9 1-.4 4.3-.6 5.1.1.5.4.6 1 .6 1.9-.9 3.6-1.2 4.8-1.3 4.8h-2.7c.4-1.3.8-2.3 1.2-4.4-.6.1-1.7.1-2.4.1z" fill="#fffbf6"/><path d="M70.7 0h23.8c3.8-.1 8.1 4.3 6.5 9.1l-2.6 8.7C97.3 22.7 93.8 30 85.8 30H60.4c-2.6 0-7.4-2.1-6.6-8.8l4.6-14.5C60.1 4.6 61.8-.2 70.7 0z"/><path d="M80.1 2.8c0 .3-1.6 6.2-1.8 6.2H66.6c-.5 1.9-2.7 8.3-3 9.4-.3.8-.5 2.2-.8 3.1H69c.5-1.8.6-2.5.9-3.4h-2.8c.6-1.8 1.2-3.9 1.8-5.7h8.6c-.4 1.5-1.1 3.9-1.5 5.1-1.7 5.3-1.9 10.2-10.8 10.2-5.4 0-12 .6-7-11 1-2.4 1.9-7.9 4.6-11.1 1.6-1.8 3.9-2.7 6.7-2.7 6.9-.1 10.2-.1 10.6-.1zM98.6 8.3c-.5 1.6-1.1 4.2-1.9 6.4-1.3 3.5-1.7 9.6-7.2 12-1.7.8-3.9.8-6.7.8-9.4 0-6.7-6.2-4.1-14.2 1.4-4.2 3.1-10.8 9.2-10.8h6.5c2.3 0 5.4 2.1 4.2 5.8z" fill="#f90000"/><path d="M86.5 9h5.6l-3.9 12.4h-5.6L86.5 9z"/></g></svg>