<svg xmlns="http://www.w3.org/2000/svg" viewBox="0 0 146.1 32"><path d="M.1 8.5c3.9.1 7.9 0 11.8 0 1 .1 1.9.7 2.2 1.7.3.8.2 1.7.2 2.6 0 1 .1 2-.1 2.9-.4.9-1.3 1.6-2.3 1.7H2.2c-.1 1.7-.1 3.3-.1 5H0c.1-4.6.1-9.2.1-13.9zm2.1 2.2v4.7h9.4c.4 0 .6-.3.5-.6v-4.1H2.2zM45.6 8.6H48c1 1.1 4.1 4.9 5.2 6.4 1.4-1.7 4.2-5.3 5.3-6.4h2.4c-.5.8-5.4 7.3-6.2 8.4-.2.3-.4.6-.4.9v4.6h-2.1v-4.8c0-.5-.3-.8-.6-1.1-1.7-2.2-3.4-4.4-5-6.6-.4-.7-.7-1-1-1.4zM15.4 8.6h2.2v11.8H29.8v2.1c-4.8.1-9.6 0-14.4 0-.1-4.7 0-9.3 0-13.9zM32.5 8.8c.5-.2 1.2-.2 1.9-.2h8.7c1.3-.1 2.3 1.3 2.2 2.5v11.4h-2.1c0-1.6 0-3.2-.1-4.8H33v4.8h-2.1V11.1c0-1.1.8-1.9 1.6-2.3zm.6 1.9v4.8h10c0-1.6-.1-3.2-.1-4.8H33.1zM61.1 11c-.1-1.3 1.2-2.4 2.5-2.4h6.2c1.3 0 2.7-.1 4 .2.7.2 1.2.8 1.5 1.4s.2 1.3.2 1.9h-2.3v-1.2c-.3-.1-.7-.1-1-.1h-7.1c-.6 0-1.3-.1-1.9.1-.1 1.1 0 2.1 0 3.2 0 .4.4.4.7.4h8.7c1-.1 2 .5 2.5 1.4.4.6.3 1.4.3 2.2 0 .8.1 1.7-.1 2.5-.2.9-1 1.8-2 1.9-1.2.2-2.4.1-3.6.1h-6.3c-.9 0-1.6-.5-2.1-1.2-.5-.6-.4-1.4-.4-2.1.7-.1 1.5-.1 2.2 0 0 .3 0 .7.1 1 .2.3.5.2.8.2h6.8c.8 0 1.6.1 2.4-.1v-3.6c-.4-.1-.7-.1-1.1-.1h-8c-.8 0-1.7-.1-2.3-.6-.5-.4-.8-1.1-.7-1.8V11zM78.9 8.6c.3-.1.6-.1.9-.1h9c1.1 0 2.4.8 2.4 2 .1 3 0 5.9 0 8.9 0 .6-.1 1.3-.5 1.9-.5.6-1.2 1.1-2 1.1h-8.9c-.5 0-1.1 0-1.6-.2-.6-.3-1.2-.8-1.3-1.5-.3-.7-.2-1.5-.2-2.3v-6.9c0-1.3 1-2.4 2.2-2.9zm.3 2.1c-.2.2-.1.5-.2.8v8.8c3.3.1 6.6 0 9.9 0V11c.1-.3-.3-.5-.5-.5H80c-.3 0-.6 0-.8.2zM92.6 8.6c.9 0 1.7-.1 2.6 0 2.4 2.5 4.6 5.2 6.8 7.8 1 1 1.8 2.1 2.8 3.1V8.6h2l.2.2v8.4c0 1.7-.1 3.5 0 5.2h-2.4c-.2 0-.4-.2-.5-.4-.8-1-1.7-1.9-2.5-2.9-1.3-1.5-2.7-3.1-4-4.6-.9-1-1.7-2.1-2.7-3-.1 3.6.1 7.3-.1 10.9h-2.1c-.1-4.6-.1-9.2-.1-13.8z" fill="#fff"/><path fill="#e9148d" d="M113.9 1.2l10.7 4.9-10.7 5.1z"/><path fill="#2baee4" d="M124.6 6.1l10.7 4.8-10.7 5.2z"/><path fill="#13b6a7" d="M124.6 16.1l10.7 4.8-10.7 5.2z"/><path fill="#fee700" d="M135.3 10.9l10.8 4.9-10.8 5.1z"/><path fill="#ec242a" d="M113.9 11.2l10.7 4.9-10.7 5z"/><path fill="#fcb34b" d="M113.9 21.2l10.7 4.9-10.7 5.1z"/></svg>