<svg xmlns="http://www.w3.org/2000/svg" viewBox="0 0 35.19 32.94"><g fill="none" stroke="#e8ce3a" stroke-linecap="round" stroke-linejoin="round" stroke-width="2"><path d="M14.18 10.58h6.06c.48 0 .75.41.87.87l1.36 5.36c.12.46-.39.87-.87.87h-8.77c-.48 0-1-.4-.87-.87l1.36-5.36c.12-.46.39-.87.87-.87zM8.82 17.71h6.06c.48 0 .75.41.87.87l1.36 5.36c.12.46-.39.87-.87.87H7.46c-.48 0-1-.4-.87-.87l1.36-5.36c.12-.46.39-.87.87-.87zM20 17.71h6.1c.48 0 .75.41.87.87l1.36 5.36c.12.46-.39.87-.87.87h-8.78c-.48 0-1-.4-.87-.87l1.36-5.36c.12-.46.39-.87.87-.87zM3.45 24.85h6.06c.48 0 .75.41.87.87l1.36 5.36c.12.46-.39.87-.87.87H2.09c-.48 0-1-.4-.87-.87l1.36-5.36c.12-.46.39-.87.87-.87zM14.67 24.85h6.06c.48 0 .75.41.87.87l1.4 5.36c.12.46-.39.87-.87.87h-8.82c-.47 0-1-.4-.87-.87l1.36-5.36c.12-.46.39-.87.87-.87zM25.89 24.85h6.06c.48 0 .75.41.87.87l1.36 5.36c.12.46-.39.87-.87.87h-8.78c-.48 0-1-.4-.87-.87L25 25.71c.12-.46.39-.87.87-.87zM17.29 1v4.45M26.78 3.43l-2.23 3.86M33.78 10.29l-3.86 2.22M7.85 3.64l2.23 3.85M1 10.64l3.86 2.22"/></g></svg>