<svg xmlns="http://www.w3.org/2000/svg" viewBox="0 0 1118.109 300.603"><g fill="#fff"><path d="M1118.11 44.731l-.3 1.646c-10.273-6.483-13.415-7.63-9.425-3.441l-34.11-.897c-3.192 14.96-6.084 24.135-8.677 27.527l1.645.149c-2.892 6.383-4.438 10.572-4.637 12.566 1.097.1 1.596.699 1.496 1.796-1.297-.1-3.142 6.782-5.535 20.645l-1.646-.3c.499-2.991-2.693-13.065-9.574-30.219l-12.418-32.015-9.873-.15-3.5.15-3.297-.639-2.628.34c-1.097 0-4.489.1-10.173.299-5.686.2-9.425.3-11.221.3-1.197 6.283.15 11.768 4.04 16.455 24.235 67.023 35.954 103.576 35.156 109.66v1.645l-1.945 2.992c1.197.1 2.045 2.843 2.544 8.229l-5.087-.3v1.497c4.19.498 6.134 2.343 5.835 5.534-1.097-.099-1.745.4-1.945 1.497l-.15 1.795c1.696 39.396 2.693 61.886 2.992 67.471l4.19-.898 38.447-.299-.15-8.677-1.645-72.408-.299-10.173c6.981-24.734 14.062-44.482 21.244-59.242 9.474-34.908 15.658-52.112 18.55-51.614l-.299 2.992 2.394-13.913zM855.408 217.972l-4.338.449-40.543-.15-.448-175.036H779.26l-.299-2.543-4.189 2.842c-2.892-1.595-4.238-2.293-4.039-2.094l-.898 216.625 88.864-.598v-2.244c-.299-3.99.1-15.609 1.197-34.857l-4.488-2.394zM588.799 54.754c.1 0 .15-.249.15-.747-.1 0-.15-.1-.15-.3 0-.498.2-5.435.598-14.81V2.543c0-1.196-.199-1.895-.598-2.094h-4.19c-.498 0-.847.1-1.046.3l-1.347-.3h-56.999c-.697 0-1.745-.15-3.141-.449 0 .3-.648.449-1.945.449h-3.292c-.598 0-1.196-.15-1.794-.449-.5.3-1.048.449-1.646.449h-11.22c-.599 0-1.397.1-2.394.3-.2-.2-.548-.3-1.047-.3-.798 0-2.294.1-4.488.3-1.197-.2-1.896-.3-2.095-.3-.698.2-1.396.3-2.094.3l-1.197-.3-.449.3-1.496-.3-1.945.3-.449-.3c0 .2-.05.3-.149.3h-2.095l-1.495.298c0-.199-.1-.299-.3-.299a1.016 1.016 0 01-.748.3h-1.945l-1.047-.3c0 .2-.2.3-.599.3h-.448l-.449-.3v.3c-.898 0-1.945-.1-3.142-.3-.1 0-.399.1-.897.3a7.61 7.61 0 00-2.095-.3h-1.346l-.3.3c0-.2-.1-.3-.298-.3h-1.197l-.45.3c0-.2-.05-.3-.15-.3h-.747l-1.496.3c0-.2-.05-.3-.15-.3l-.448.3c-.1 0-.499-.1-1.197-.3-.399.698-.848 1.047-1.346 1.047h-.15v-.748h-.3v.45l.3 1.794-.3 3.441 1.048.3v1.196c-.499 0-.748.35-.748 1.047l-.45-.449v1.048c0 .798.05 1.396.15 1.795l-.15 2.094v1.496l.15 2.095c-.1.399-.15.748-.15 1.047 0 1.097.05 3.79.15 8.079l-.15 2.543c.1.3.15 1.097.15 2.394v.449l-.15.598h.15l-.15 4.338v24.984l.15 2.394c-.1 0-.15.498-.15 1.496v1.346c0 1.297.05 2.394.15 3.291-.1 1.198-.15 2.345-.15 3.442v8.526l.15 3.442c-.1 0-.15.149-.15.448h.15c0 .898-.05 1.846-.15 2.843.1 1.995.15 3.74.15 5.236v.3l-.15.747c.2 0 .35.699.45 2.094-.3 4.788-.45 10.223-.45 16.307l.15 2.394c-.1 0-.15.25-.15.748 0 .997.05 1.696.15 2.094l-.15 2.095v1.795l.15 1.796c-.1 0-.15.1-.15.298 0 .3.05.649.15 1.048-.1 0-.15.1-.15.299v58.644c0 1.097.15 4.638.45 10.622l-.3 2.095c.2 0 .3.349.3 1.047v2.094l-.3.748h.3l-.3 3.442v4.936c0 1.995.1 5.187.3 9.575-.2 0-.3.25-.3.748.2 0 .3.349.3 1.047v1.047l-.3.748h.3l-.3 2.394v.3c0 .897.1 1.994.3 3.29l-.3.599.3 1.795c0 .997-.1 1.945-.3 2.843.2.897.3 1.845.3 2.842v3.44l-.3 2.245c.2.399.3.947.3 1.646v1.795l-.3.748h.3c0 .498-.1.947-.3 1.346.3.998.45 1.746.45 2.244l-.15 1.347c.1 0 .15.1.15.299-.1 0-.15.15-.15.449v3.141l-.3.748h.3c-.2 8.478-.3 14.91-.3 19.3 0 .398.15.647.45.747-.3 1.895-.45 3.092-.45 3.59V293.5l-.15 3.59 1.049.599c.1-.4.149-.748.149-1.047h.898c0 .598.448.947 1.346 1.047 0-.2.05-.3.15-.3h.449l.448.3c0-.2.599-.4 1.795-.598l4.04.598c0-.2.997-.4 2.992-.598.3.199.498.299.598.299.3 0 .598-.1.898-.3l1.197.3h2.244c.498 0 1.097-.1 1.795-.3.2.2.698.3 1.496.3h.748l1.197-.3c.2.2.548.3 1.047.3h.898c.598 0 1.147-.1 1.645-.3.599.2 1.147.3 1.646.3h.898l1.346-.3c.2.2.399.3.599.3.598 0 1.146-.25 1.645-.748.2 0 .399.15.598.449 1.297-.3 2.045-.45 2.244-.45.499 0 1.397.25 2.694.749 0-.2.05-.3.149-.3v.3c.698 0 1.147-.1 1.346-.3.998.2 1.745.3 2.245.3h1.794c.798 0 1.895-.1 3.292-.3.3.2.648.3 1.047.3l1.197-.3 1.047.3 1.496-.3 1.047.3 1.047-.3 1.048.3c.2 0 .449-.25.748-.748h.449v.748c.299 0 .598-.1.897-.3 1.397.2 2.544.3 3.44.3l1.497-.3c0 .2.05.3.15.3v-.3l2.094.3h2.544c1.296 0 3.141.1 5.535.299.2-.2.499-.3.897-.3 0 .2.05.3.15.3.499-.2.798-.3.897-.3l1.048.3.449-.3c.698.2 1.296.3 1.795.3h7.031l1.497-.3c0 .2.298.3.897.3h1.346c.499 0 .898-.1 1.197-.3l1.197.3h7.48c1.197 0 2.943.15 5.236.449 0-.3.05-.45.15-.45.798.3 1.446.45 1.945.45h3.141c.898 0 2.045.1 3.441.299.3-.2.499-.3.599-.3l8.976.6c.2-.2.448-.3.748-.3l.449.3.449-.3c.797.2 1.446.3 1.944.3h4.489c0-.4.1-.6.298-.6.898-.797 1.347-2.343 1.347-4.637 0-.133-.648-70.34-1.945-210.62-.399-17.653-.598-27.028-.598-28.126zm-21.393 200.469v2.244l-88.865.598.898-216.625c-.2-.2 1.147.499 4.04 2.094l4.188-2.842.3 2.543h30.817l.449 175.036 40.543.15 4.339-.45 4.487 2.395c-1.097 19.248-1.496 30.868-1.196 34.857zM442.363 42.338V29.172c0-.897-.1-2.144-.299-3.74.2-.399.3-.847.3-1.346-.2-7.979-.3-12.816-.3-14.511a84.61 84.61 0 01-.15-2.095c.1 0 .15-.499.15-1.496v-.3l-.3-1.046c-.797 0-2.813.15-3.312.449-.698-.3-1.346-.45-1.945-.45h-1.795l-1.047-.298c0 .199-.05.299-.15.299l-1.196-.3h-11.67l-.448-.299c0 .2-.05.3-.15.3-1.297 0-2.543-.1-3.74-.3-.3 0-.599.1-.898.3-1.097-.2-2.044-.3-2.843-.3h-5.534l-.45-.449c0 .3-.049.45-.149.45h-.448l-.45-.45c0 .3-.05.45-.15.45h-.149l-.448-.45v.45l-1.945-.45h-4.788l-1.047-.3c0 .2-.1.3-.3.3l-1.196-.3-.299.3-1.197-.3h-21.244l-1.047-.298c0 .2-.1.299-.3.299-.298 0-.548-.1-.747-.299l-1.197.299h-1.047l-.3-.299c0 .2-.099.299-.299.299h-.299l-.449-.299c0 .2-.05.299-.149.299h-.598l-.45-.299c0 .2-.049.299-.149.299h-1.496l-1.047-.299c0 .2-.2.299-.599.299h-.15l-.448-.299c0 .2-.05.299-.15.299h-1.047l-.299-.299c0 .2-.1.299-.3.299h-1.346l-1.197-.299c-.199.2-.548.299-1.047.299h-.3l-.448-.299c0 .2-.1.299-.299.299-.4 0-.998-.1-1.795-.299-.2.2-.4.299-.598.299l-.3-.299c-.299.2-.598.299-.897.299l-.3-.299c0 .2-.1.299-.299.299-.698 0-1.147-.1-1.346-.299-.699.2-1.297.299-1.796.299h-7.63l-2.094-.299c0 .2-.1.299-.299.299l-.898-.299c-.1 0-.299.1-.598.299-.1 0-.299-.1-.599-.299-.498 0-.997.1-1.495.299-2.494-.2-4.738-.299-6.733-.299h-.748l-1.945.299c0-.2-.099-.299-.299-.299-.1 0-.299.1-.598.299-.898-.2-1.646-.299-2.244-.299h-6.134c-.3 0-.448.349-.448 1.047 0 .4-.25.599-.749.599 0 .498.15.748.449.748l-.299.598-.3-.3.15-.597h-.15c-.498 1.097-.947 1.645-1.346 1.645v.748c.3 1.596.45 2.493.45 2.693h-.45v.748c0 .599.15 1.297.45 2.094 0 .2-.05.549-.15 1.047 0 .2.05.3.15.3.198 3.69.548 5.535 1.046 5.535 0 .499-.05.948-.15 1.346l.15 2.095v2.394l.449 1.047v.448c0 .5-.1.948-.299 1.347.2.4.299.748.299 1.047 0 .6-.1 1.496-.299 2.693.2.499.299.848.299 1.047 0 .3-.1.649-.299 1.047l.299 2.095v1.047l-.598 1.795.598.599c-.399 1.795-.698 4.339-.897 7.63.199.499.299.847.299 1.047 0 .499-.25.748-.748.748l.299.598v1.496l-.299 1.646c.2 0 .299.1.299.3-.2 1.595-.399 2.792-.598 3.59l.15.598c-.1 1.197-.15 1.895-.15 2.094 0 .4.1.848.3 1.347v.449c-.2.3-.4 2.244-.6 5.835.2 1.296.3 2.194.3 2.692l-.599 4.937c.1 0 .15.1.15.3v3.141l-.15 1.795c.2 0 .299.898.299 2.693l-.299 4.189c.1.4.15.748.15 1.047 0 .2-.05.549-.15 1.047l.15.599c0 .598-.05 1.545-.15 2.842l.15 1.347-.15 1.346c0 .3.05.649.15 1.047l-.15 2.095v.748c0 .4.1.598.299.598 0 .499-.05 1.795-.15 3.89.1 1.994.15 3.141.15 3.44-.1 0-.15.1-.15.3.1 0 .15.15.15.449v.598c0 .599-.05 1.097-.15 1.496.1.4.15.848.15 1.347 0 4.887.1 11.57.3 20.046l.15 1.796c-.1 0-.15.1-.15.299.1 0 .15.1.15.299v8.378c0 2.294.05 5.037.15 8.228l-.3 3.142c.1.399.15.848.15 1.346v1.795l-.15.749c.1 0 .15.1.15.298l-.15 1.647.3.448c0 .599-.1 1.646-.3 3.142 0 .299.1.747.3 1.347v1.047h-.15v2.094c0 .998-.25 3.74-.749 8.228l.299 2.393v.45h-.299c0 2.294-.2 3.989-.598 5.086l.15 2.543-.15.599.15.748c0 .698-.15 1.047-.45 1.047.3 3.39.45 5.784.45 7.18 0 .5-.15.75-.45.75l.3.747v2.393c-.399 0-.699.45-.898 1.347.4 1.795.598 2.942.598 3.44v.45h-.299v.598l.15 3.441c-.3 0-.499.499-.598 1.496.398 0 .598.549.598 1.646l-.15 2.393h.748v.748c-.2 1.098-.648 1.646-1.346 1.646v1.496c.399 0 .598.35.598 1.048h-.299l-1.196 1.645.448 1.047v1.047h-.448c0 .798-.05 2.743-.15 5.835l.15 2.543c-.1.399-.15.748-.15 1.047.797.998 1.197 1.895 1.197 2.693v1.047h-.45v.3c.699 0 1.048.698 1.048 2.094h-.449v.748h.45v.598c-.3 2.294-.45 3.59-.45 3.89h.598l-.747 3.74c.299 0 .448.25.448.748v1.047h-.448c0 .5.05.948.15 1.347-.1 2.094-.2 3.39-.3 3.89.1 0 .15.1.15.299v1.047h-.45v.3c.3 0 .649.348 1.048 1.046 0 .3-.15 1.596-.449 3.89.4 0 .598.698.598 2.095l-.149 2.393h.748v1.347h-.748l.15.748v.299h-.3c.2 1.296.3 2.443.3 3.44 0 .3-.05.649-.15 1.048.2 0 .349 1.047.449 3.142-.2 0-.3.1-.3.299.998 11.389 1.497 17.615 1.497 18.679v.3l.3-.3c.597.897.946 1.346 1.046 1.346.997 1.796 2.094 2.693 3.291 2.693 0-.2.05-.3.15-.3h4.039l.449.3c0-.2.05-.3.15-.3h1.795c1.995 0 3.79.1 5.385.3.898-.2 2.294-.3 4.19-.3.199 0 .399.1.598.3 0-.2.1-.3.3-.3h6.133l2.394.3c0-.2.498-.3 1.495-.3l.3.3c0-.2.1-.3.299-.3h.15c.298 0 .548.1.747.3.3-.2.599-.3.898-.3h.598l.45.3v-.3l2.393.3c.1 0 3.063-1.467 6.155-1.667l.449.3v-.3l1.346.3h1.646l1.346-.3c0 .2.05.3.15.3.3-.2.498-.3.598-.3.3 0 .599.1.898.3.2-.2.449-.3.748-.3h2.244l.449.3c0-.2.05-.3.15-.3l2.222 1.368c.698 0 1.845.1 3.441.3 0-.2.2-.3.599-.3 0 .2.05.3.15.3v-.3c1.196 0 1.994.1 2.393.3 2.094-.2 3.99-.3 5.685-.3 3.001-.912 5.595-1.368 7.782-1.368.473 0 1.869.456 4.186 1.368.898 0 2.244-.1 4.039-.3 0 .2.2.3.598.3l.45-.3c.099 0 .299.1.597.3 1.497-.2 2.743-.3 3.74-.3h.45l.449.3c0-.2.05-.3.149-.3h5.087l1.196-.448c.2.3.499-.92.898-.92h2.244c.798 0 1.895-.149 3.291-.448.2.3.4.449.599.449a.957.957 0 01.405-.343c.75.623 1.491 1.262 1.54 1.262h11.07c.898 0 2.344-.1 4.339-.3 0 .2.1.3.3.3.198-.2.448-.3.747-.3h5.856c.2 0 .3-.249.3-.747v-2.992l.298-2.544c-.2 0-.299-.2-.299-.598l.3-.748h-.3c0-5.386.1-8.478.3-9.276-.2-7.38-.3 6.654-.3 1.07v-24.536l.3-.748h-.3c0-.898.1-1.795.3-2.693 0-.299-.1-.648-.3-1.047 0-.499.1-.947.3-1.346.1-10.672.149-18.9.149-24.685V73.156l-.15-4.04c.1 0 .15-.847.15-2.542v-1.646c0-2.693-.05-5.485-.15-8.378.1-1.197.15-2.094.15-2.693l-.15-3.142c0-.797.05-1.396.15-1.795-.1-2.493-.15-4.687-.15-6.582zm-26.052 252.936c0-.058.113-.003.295.121l-.295-.121zm7.18-214.04h-42.038l-.449 47.126h40.692l.45 36.502-1.347 3.89c-1.097 0-1.645-.648-1.645-1.945h-36.055c-1.596 0-2.593 1.297-2.992 3.89l-.3 24.685v22.74l41.291-.3v39.346h-81.534l.898-212.137v-1.945l83.33.3-.3 37.848zM297.056 42.338V29.172c0-.897-.1-2.144-.3-3.74.2-.399.3-.847.3-1.346-.2-7.979-.3-12.816-.3-14.511a84.61 84.61 0 01-.149-2.095c.1 0 .15-.499.15-1.496v-.3l-.3-1.046c-.797 0-1.446.15-1.944.449-.698-.3-1.347-.45-1.945-.45h-1.795l-1.047-.298c0 .199-.05.299-.15.299l-1.197-.3h-13.037l-.449-.299c0 .2-.05.3-.15.3-1.296 0-2.542-.1-3.74-.3-.299 0-.598.1-.897.3-1.097-.2-2.045-.3-2.842-.3h-5.536l-.449-.449c0 .3-.05.45-.15.45h-.448l-.45-.45c0 .3-.049.45-.148.45h-.15l-.449-.45v.45l-1.945-.45-6.155 1.368-1.047-.3c0 .2-.1.3-.3.3l-1.196-.3-.3.3-1.196-.3-19.876-1.367-1.047-.299c0 .2-.1.299-.3.299-.299 0-.548-.1-.747-.299l-1.197.299h-1.048l-.299-.299c0 .2-.1.299-.299.299h-.3l-.448-.299c0 .2-.05.299-.15.299h-.598l-.449-.299c0 .2-.05.299-.15.299h-1.495l-1.048-.299c0 .2-.199.299-.598.299h-.15l-.449-.299c0 .2-.05.299-.149.299h-1.047l-.3-.299c0 .2-.1.299-.299.299h-1.346l-1.197-.299c-.2.2-.549.299-1.047.299h-.3l-.448-.299c0 .2-.1.299-.3.299-.398 0-.997-.1-1.795-.299-.2.2-.398.299-.598.299l-.3-.299c-.298.2-.597.299-.897.299l-.3-.299c0 .2-.099.299-.298.299-.699 0-1.147-.1-1.347-.299-.698.2-1.297.299-1.795.299h-7.63l-2.094-.299c0 .2-.1.299-.3.299l-.897-.299c-.1 0-.3.1-.598.299-.1 0-.3-.1-.6-.299-.498 0-.996.1-1.495.299-2.493-.2-4.737-.299-6.732-.299h-.748l-1.945.299c0-.2-.1-.299-.3-.299-.1 0-.298.1-.598.299-.897-.2-1.645-.299-2.244-.299h-6.133c-.3 0-.449.349-.449 1.047 0 .4-.25.599-.748.599 0 .498.15.748.45.748l-.3.598-.3-.3.15-.597h-.15c-.499 1.097-.947 1.645-1.346 1.645v.748c.299 1.596.449 2.493.449 2.693h-.449v.748c0 .599.15 1.297.449 2.094 0 .2-.05.549-.15 1.047 0 .2.05.3.15.3.2 3.69.548 5.535 1.047 5.535 0 .499-.05.948-.15 1.346l.15 2.095v2.394l.45 1.047v.448c0 .5-.1.948-.3 1.347.2.4.3.748.3 1.047 0 .6-.1 1.496-.3 2.693.2.499.3.848.3 1.047 0 .3-.1.649-.3 1.047l.3 2.095v1.047l-.6 1.795.6.599c-.4 1.795-.7 4.339-.899 7.63.2.499.299.847.299 1.047 0 .499-.249.748-.747.748l.298.598v1.496l-.298 1.646c.198 0 .298.1.298.3-.199 1.595-.398 2.792-.598 3.59l.15.598c-.1 1.197-.15 1.895-.15 2.094 0 .4.1.848.3 1.347v.449c-.2.3-.4 2.244-.599 5.835.2 1.296.299 2.194.299 2.692l-.598 4.937c.1 0 .15.1.15.3v3.141l-.15 1.795c.2 0 .3.898.3 2.693l-.3 4.189c.1.4.15.748.15 1.047 0 .2-.05.549-.15 1.047l.15.599c0 .598-.05 1.545-.15 2.842l.15 1.347-.15 1.346c0 .3.05.649.15 1.047l-.15 2.095v.748c0 .4.1.598.3.598 0 .499-.05 1.795-.15 3.89.1 1.994.15 3.141.15 3.44-.1 0-.15.1-.15.3.1 0 .15.15.15.449v.598c0 .599-.05 1.097-.15 1.496.1.4.15.848.15 1.347 0 4.887.099 11.57.298 20.046l.15 1.796c-.1 0-.15.1-.15.299.1 0 .15.1.15.299v8.378c0 2.294.05 5.037.15 8.228l-.3 3.142c.1.399.15.848.15 1.346v1.795l-.15.749c.1 0 .15.1.15.298l-.15 1.647.3.448c0 .599-.1 1.646-.3 3.142 0 .299.1.747.3 1.347v1.047h-.15v2.094c0 .998-.25 3.74-.748 8.228l.3 2.393v.45h-.3c0 2.294-.2 3.989-.599 5.086l.15 2.543-.15.599.15.748c0 .698-.15 1.047-.449 1.047.3 3.39.449 5.784.449 7.18 0 .5-.15.75-.449.75l.3.747v2.393c-.4 0-.7.45-.898 1.347.399 1.795.598 2.942.598 3.44v.45h-.3v.598l.15 3.441c-.3 0-.498.499-.598 1.496.399 0 .599.549.599 1.646l-.15 2.393h.748v.748c-.2 1.098-.648 1.646-1.347 1.646v1.496c.4 0 .599.35.599 1.048h-.3l-1.196 1.645.449 1.047v1.047h-.449c0 .798-.05 2.743-.15 5.835l.15 2.543c-.1.399-.15.748-.15 1.047.798.998 1.197 1.895 1.197 2.693v1.047h-.449v.3c.699 0 1.048.698 1.048 2.094h-.45v.748h.45v.598c-.3 2.294-.45 3.59-.45 3.89h.6l-.749 3.74c.3 0 .449.25.449.748v1.047h-.449c0 .5.05.948.15 1.347-.1 2.094-.2 3.39-.3 3.89.1 0 .15.1.15.299v1.047h-.449v.3c.3 0 .649.348 1.048 1.046 0 .3-.15 1.596-.45 3.89.4 0 .6.698.6 2.095l.897 1.624.598 1.346v3.74c.498 4.688.748 7.231.748 7.63-.1.499-.15.848-.15 1.047 0 .998.05 1.945.15 2.843-.498 7.18-.748 11.569-.748 13.165v.3l.3-.3c.598.897.947 1.346 1.047 1.346.997 1.796 2.094 2.693 3.29 2.693 0-.2.05-.3.15-.3h4.04l.449.3c0-.2.05-.3.149-.3h1.796c1.994 0 3.79.1 5.385.3.898-.2 2.294-.3 4.19-.3.198 0 .398.1.597.3 0-.2.1-.3.3-.3h6.133l2.394.3c0-.2.499-.3 1.496-.3l.3.3c0-.2.1-.3.298-.3h.15c.3 0 .548.1.748.3.3-.2.599-.3.897-.3h.599l.45.3v-.3l2.392.3c.1 0 1.696-.1 4.788-.3l.449.3v-.3l1.346.3h1.646l1.346-.3c0 .2.05.3.15.3.3-.2.498-.3.598-.3.3 0 .598.1.898.3.199-.2.449-.3.748-.3h2.244l.449.3c0-.2.05-.3.15-.3h3.59c.698 0 1.845.1 3.44.3 0-.2.2-.3.599-.3 0 .2.05.3.15.3v-.3c1.197 0 1.994.1 2.393.3 2.094-.2 3.99-.3 5.685-.3h11.968c.898 0 2.244-.099 4.04-.298 0 .2.199.299.598.299l.45-.3c.099 0 .298.1.598.3 1.495-.2 2.742-.3 3.74-.3h.448l.449.3c0-.2.05-.3.15-.3h5.086l1.197-.448c.2.3.498.449.898.449h2.244c.798 0 1.895-.15 3.291-.45.2.3.399.45.598.45.2-.3.5-.45.898-.45h.449l.449.45c0-.3.05-.45.149-.45h12.439c.897 0 2.343-.099 4.338-.298 0 .2.1.299.3.299.199-.2.448-.3.747-.3h4.488c.2 0 .3-.249.3-.747v-2.992l.299-2.544c-.2 0-.3-.2-.3-.598l.3-.748h-.3c0-5.386.1-8.478.3-9.276-.2-7.38-.3-13.863-.3-19.448v-4.018l.3-.748h-.3c0-.898.1-1.795.3-2.693 0-.299-.1-.648-.3-1.047 0-.499.1-.947.3-1.346.1-10.672.15-18.9.15-24.685V73.156l-.15-4.04c.1 0 .15-.847.15-2.542v-1.646c0-2.693-.05-5.485-.15-8.378.1-1.197.15-2.094.15-2.693l-.15-3.142c0-.797.05-1.396.15-1.795-.1-2.493-.15-4.687-.15-6.582zm-18.871 38.896h-42.039l-.449 47.126h40.693l.448 36.502c-1.995 2.161-2.992 2.81-2.992 1.945h-36.054c-1.596 0-2.594 1.297-2.993 3.89l-.298 24.685v22.74l41.29-.3v39.346h-81.534l.898-212.137v-1.945l7.37.026 3.153 1.47 4.442-1.442 12.868.245c.933-.2 3.465-.2 7.597 0 .586.028 1.437.028 2.554 0l3.78-.245.873.245h40.692l-.3 37.85zM912.618 42.936l-32.912 214.531 39.345-1.047 4.04-37.55 38.448.897 10.772 37.85 39.045.15-45.778-213.634-52.96-1.197zm38.897 141.675c-12.168-.898-19.648-1.098-22.44-.6-.3-1.695 2.643-25.232 8.826-70.612l1.796-.449c4.089 16.157 8.377 39.047 12.865 68.668-.997.3-1.346 1.297-1.047 2.993zM746.57 84.675c-3.989-26.829-25.482-41.49-64.479-43.983-21.742.598-40.89 1.147-57.447 1.646 1.296 79.09 1.496 123.87.598 134.343l1.646-.598-1.945 24.834 1.646-.599c-.399 4.589-.599 23.688-.599 57.299l47.575.598v-69.416c2.792-.599 12.117-1.496 27.975-2.693 26.03-4.388 41.69-21.243 46.975-50.565 2.195-11.57 2.544-21.843 1.047-30.819l-2.991-20.047zm-34.044 33.58l-35.78 23.733a3.843 3.843 0 01-1.917.516 3.85 3.85 0 01-3.846-3.845V91.197a3.85 3.85 0 013.846-3.845c.668 0 1.33.179 1.918.518l35.779 23.73a3.805 3.805 0 011.922 3.328c0 1.388-.72 2.633-1.922 3.327z"/></g><path d="M130.5 193.658l.005.073-.007.011a2.411 2.411 0 01-.01-.119l.011.035zm-5.246 28.927c-.393-.621-.097-2.393-.197-2.716-.107-.348 0-1.113.039-1.315.05-.261.182-.383.097-.593-.125-.307-.21-.605-.098-.943.065-.198-.051-.381-.16-.546-.15-.226-.132-.446-.006-.675.155-.284.35-.542.46-.856.064-.186.052-.308-.09-.43-.368-.318-.447-.713-.347-1.178.079-.364.193-1.467.04-1.845-.054.022-.102.188-.156.21l-.237-.144c-.034.048-.018.02-.056.066-.312.383-.438.82-.804 1.157-.364.335-.5.535-.777.937-.128.186-.204.605-.177.818.08.626-.122 1.21-.325 1.793-.348 1.002-.397 2.062-.691 3.078-.19.66-.362 1.326-.411 2.012l4.058 11.982c-.065-.622-.133-1.263-.184-1.865l.126-.26c-.042-.362-.088-.665-.1-1.348-.014-.889.068-2.767.046-3.627a7.823 7.823 0 00-.005-.13l-.002-.051a5.394 5.394 0 00-.025-.332l-.004-.035a6.373 6.373 0 00-.01-.09c0-.007-.002-.014-.003-.02-.047-.37-.108-.57-.103-.863.008-.432.11-.787.196-1.031.127-.357.013-.488.036-.728.016-.168.04-.33.066-.49l-.196.058zm27.042-137.689c0 .998.25 2.295.748 3.89-.1 1.596-.15 2.893-.15 3.89-.832 26.688-1.33 45.912-1.496 57.672-.144 10.294.595 21.062.469 29.477-.023 1.496-.562 1.545-.585 2.98-.022 1.38.607 2.764.585 4.088-.17 10.21-.352 18.692-.585 25.307-.054 1.535-1.097.913-1.128 2.306-.153 6.92.769 13.05.748 16.188-.008 1.17-.533 3.323-1.496 5.272-.64 1.298-1.849 2.777-1.86 2.819.1 0 .35.698.749 2.094 0 .699-.2 1.048-.598 1.048l.298 1.795c0 .3-1.196 1.197-.298 1.197h.598v1.645l-.3 1.796c.2 0 .35.349.45 1.047l-.45 2.543.749 1.216 1.86 1.552 1.046 1.642.898 2.086-1.496 3.752v4.638l.23 3.834 1.116 18.563c.3.599-1.2 9.326-1 10.622H123.23v-.598c-.099 0-.149.1-.149.299l-.598-.3h-.898l-1.346.3c0-.2-.798-.549-2.394-1.047-.199 0-.299.449-.299 1.346h-.3l-.448-.3c0 .2-.1.3-.299.3h-.748c-.698 0-1.596.15-2.693.449-.499 0-1.346-.698-2.543-2.095h-1.197c-.599 0-1.346-.15-2.244-.448-.997.498-1.646.748-1.945.748v-.3c-2.094-.299-3.141-.698-3.141-1.196-.1 0-.15.15-.15.448-.898 0-1.347-.598-1.347-1.795h-.747v1.347h-2.245l.3.748c-.898 0-1.746.698-2.544 2.094H93.76l-1.497-.3c-.2.2-.598.3-1.197.3h-5.727v.748c-.399-.2-1.247-.449-2.544-.748-.897.3-1.695.449-2.393.449h-1.796l-1.795-.449-.149.748-1.796-.3c-.199 0-.448.1-.747.3 0-.2-.1-.3-.3-.3h-.299l-.448.3v-.3l-2.993.3-1.197-.3c-.698.2-1.396.3-2.094.3-.798 0-1.596-.1-2.394-.3l-1.496.3-1.795-.3c-.3.2-.549.3-.748.3-.4 0-.748-.1-1.048-.3l-1.495.3H40.243l-2.543-.3c0 .2-.1.3-.3.3l-1.495-.3h-.3c-.299 0-.598.1-.897.3-.3-.2-.648-.3-1.048-.3h-1.794c-.6 0-1.247-.149-1.945-.448-.599.3-1.247.449-1.945.449h-7.78l-.448.3c0-.2-.1-.3-.3-.3h-1.496c-.898 0-2.293-.15-4.189-.449 0 .3-.1.449-.3.449 0-.3-.099-.449-.298-.449h-2.992l-1.496.449c0-.3-1.147-.449-3.441-.449-1.397 0-2.094-.449-2.094-1.346l-.45.299v-1.047h-.747l-.748.748c0-.3-.35-.998-1.048-2.095h.748C.698 295.018.4 293.921 0 293.123c0-.997.05-2.294.15-3.89l-.15-.748c.299-3.79.598-5.685.897-5.685 0-.1-.149-.448-.448-1.047v-7.437c0-.499.15-.748.448-.748-.299-2.893-.448-4.439-.448-4.638l.3-2.094c-.2-.5-.3-.848-.3-1.048 0-1.197.1-2.393.3-3.59l-.3-1.795c0-.2.1-.898.3-2.095-.4-.598-.65-1.795-.749-3.59.1-1.297.15-2.494.15-3.59v-.749l-.15-.598h1.645V2.465c.699 0 1.048-.398 1.048-1.197L5.685.97c.498 0 1.146.249 1.945.748.398 0 1.097-.25 2.094-.748l.449.298C11.07 1.07 11.569.97 11.669.97c.598 0 1.047.1 1.346.298L14.511.97h5.984l1.497.298c.2-.199.598-.298 1.196-.298h4.04l1.645.298c0-.199.1-.298.3-.298l.448.298L31.117.97h7.78l1.795-.3c0 .2.748.4 2.244.598.3-.199.548-.298.748-.298l1.197.298c.399-.199.648-.298.747-.298l1.497.298.598-.298c.997.498 1.995.748 2.992.748l1.197-.45c0 .3.1.45.3.45.099 0 .348-.15.747-.45.798.3 1.297.45 1.497.45 1.395-.3 2.193-.45 2.393-.45l.748.749h1.047v-.749l1.197.45h.599l.448-.45c0 .4.699.649 2.095.749l.897-.3 1.796.3c.3 0 .698-.25 1.196-.749 0 .3.1.45.3.45h.747c.3 0 .45-.25.45-.748 1.097.498 1.794.748 2.094.748 0-.5.15-.748.449-.748 0 .698.399 1.047 1.196 1.047.2 0 .3-.25.3-.749 2.094-.199 3.34-.298 3.74-.298.499 0 .748.348.748 1.047l1.496-.3.449.3c.898-.2 1.645-.3 2.244-.3h2.543l1.795.3.15-.749 1.347.45h2.542l1.646.299c0-.2.1-.3.3-.3l1.496.3 2.244-.3 1.196.3c.3-.2.748-.3 1.347-.3h.449c1.196 0 2.094.25 2.692.748 0-.299.25-.548.748-.747v1.047h.749c.797-.698 1.395-1.047 1.795-1.047 3.89.498 5.984.747 6.283.747.1 0 .15.2.15.599h1.047v-.599h3.59c.898 0 2.045-.149 3.44-.448.3.3.65.448 1.048.448l.898-.448c.698.3 1.396.448 2.095.448h.448v.599a3.44 3.44 0 011.945-.599h.599l.897 1.047h1.496v-.747h.3c.299 0 .448.349.448 1.047h.598c0-.698.25-1.047.748-1.047l-.298-.748h.747c.698.398 1.048.897 1.048 1.495h.448c.4 0 .749-.149 1.047-.448l.45.448 2.692-1.047v1.047h-.448v.3h.747c0-.698.4-1.047 1.197-1.047h.3l1.496.299 2.543-.3h.748l.448-.299v.599h.749V2.017h.748v.748c0 .498-.25.747-.748.747v.6c.698 0 1.047.248 1.047.747h.449l.598-.299-.598-1.496c.2 0 .299-.1.299-.3.798.699 1.446 1.048 1.945 1.048.399 0 .598-.25.598-.748.798 0 1.297.848 1.496 2.543 0 .898.549 1.496 1.646 1.795 0-.498.2-.748.598-.748 0 2.095.25 3.142.748 3.142-.199.498-.399 1.945-.598 4.339.2 0 .3.1.3.298h-.45v3.591c.4 0 .698.848.898 2.543l-.449.3V34.12c-1.695 23.512-2.543 35.9-2.543 37.163l-.15.748h.15c0 .3-.05.448-.15.448l.45 1.347v.299l-1.198 2.245c0 .698.15 1.047.45 1.047h.298l.45-.449c0 1.197.348 1.795 1.046 1.795l-.748 1.795c.1 0 .349.15.748.45 0 .498-.35.847-1.047 1.046v.599l1.795-.3h.15v2.543zm-8.599 171.722l-.008-.03-.007-.029a1.047 1.047 0 00-.028-.085l-.001-.04a2.08 2.08 0 00-.004-.08l-.004-.046-.002-.026c-.123-1.27-1.21-1.142-1.952-2.162a.992.992 0 01-.08-.14l.035.031.012-.195a2.536 2.536 0 00-.175-.136 4.858 4.858 0 01-.25-.94c.223.015.373.013.417-.074.095-.579-.074-.975-.093-1.37-.024-.493-.197-.786-.328-1.506-.137-.755-.175-1.027-.196-1.44-.03-.581-.085-.632-.114-1.23-.101-2.17-.381-3.981-.445-6.626-.005-.183-.096-1.376-.358-1.638-.335-.335-.16-1.027-.196-1.178-.142-.603.009-.69-.131-.917-.286-.465-.121-.772-.152-1.216-.004-.149-.01-.293-.016-.433-.007-1.107.12-1.926.027-3.654h.005c-.04-.77-.123-1.504-.227-2.234a37.763 37.763 0 00-.31-2.01l-.005.003c-.166-1.032-.238-2.004-.342-3.046-.018-.178 0-.365-.013-.541a16.2 16.2 0 00-.199-1.47c-.05-.28-.16-.203-.18-.709-.005-.12.029-.246-.01-.358a.23.23 0 00-.06-.085.873.873 0 00-.04-.182.522.522 0 00-.086-.165.142.142 0 00.005-.033l-.018-.036c.059-.012.119-.022.18-.031a1.06 1.06 0 00.237-.055c.159-.063.025-.398.003-.528a9.186 9.186 0 01-.109-.764c-.176-2.039-.654-5.695-.654-8.25 0-1.244-.262-2.095-.393-3.863-.02-.261-.1-.787-.131-1.047-.067-.575.197-1.855.198-1.938.008-.576.042-1.15.278-1.688.373-.853.507-1.747.675-2.663.153-.836.15-1.73.355-2.55.065-.262.196-.655.196-.655l-.152-.06s-.029-.37-.001-.52c.165-.91.29-1.823.354-2.746.042-.602.09-1.2.272-1.79.162-.526.395-1.032.503-1.571.198-.996.089-1.99-.09-2.98-.132-.725-.445-1.41-.472-2.157a4.511 4.511 0 00-.366-1.573l-.356-.92c-.001-.673-.085-2.215-.292-2.546-.206-.33-.27-.735-.557-.587-.288.149-.506.079-.666.052a.74.74 0 00-.549.137c-.186.132-.412.012-.565.036-.151.023-.157.153-.316.126-.16-.027-.41-.13-.58.103-.172.234-.054.242-.267.534-.214.292.063.742.153.987s.22.834.403 1.013c.183.179.308-.022.6.192s.56.275.592.478c.065.253.121.508.17.764.16.825.09 1.651.003 2.476-.11 1.052-.037 2.116-.205 3.163-.098.609-.13 1.209.06 1.81a.902.902 0 01-.053.64c-.203.445-.408.885-.708 1.28s-.477.87-.718 1.302c-.206.37-.316.807-.484 1.226l-.034.084-.196-.066s-.328 1.244-.655 1.833c-.288.518-.635 1.05-1.143 1.374-.322.206-.976.53-1.28.132-.145.082-.12.101-.322.194a4.698 4.698 0 01-.496-1.553.84.84 0 00.184-.445 1.097 1.097 0 00-.013-.215c-.023-.222-.087-.456-.13-.748.236.043.3-.61.293-.819-.012-.31.066-.867.043-1.219-.013-.202-.076-.349-.154-.38a.207.207 0 00-.177.001c-.015-.123-.028-.25-.04-.387-.011-.136-.132-.245-.155-.381-.024-.137-.023-.282-.033-.435.05.085.092.183.142.294a2.026 2.026 0 00-.082-.278c.064.13.116.289.147.5-.042-.304-.102-.55-.231-.74a1.274 1.274 0 00-.092-.31c-.105-.233-.367-.588-.55-.883.242.246.302.299.464.603-.305-.712-.271-.999-1.008-1.184.071-.059.144-.117.216-.174-.182.073-.27.113-.461.152.13-.115.143-.23-.004-.422.054.479-1.08.188-1.392.143-.474-.045-.812-.046-1.263-.201l.195.181c-.218-.003-.37.013-.54-.192.023.246.147.309.303.388a5.812 5.812 0 00-.234.044.629.629 0 00.066-.007c-.218.05-.426.125-.616.22a.847.847 0 01-.448-.105c.1.22.104.198.266.368-.336.248-.587.407-.718.835-.067.03-.136.061-.208.095.068-.01.13-.021.191-.031l-.009.031-.017.028.015-.018a2.023 2.023 0 00-.022.104c.056-.057.114-.12.182-.172l.191-.035c-.125.303-.296.538-.446.778a7.99 7.99 0 00-.108.047l.092-.02-.031.051c-.027.02-.055.04-.082.062l.06-.023c-.09.156-.167.32-.211.512.034-.065.067-.106.1-.15.06-.035.117-.065.172-.094-.036.131-.058.24-.082.388l.21-.191c.053 1.041.089 1.088.425 2.05.035.012.066.03.096.048-.081-.01-.144.02-.196.086-.053.065-.034.224.054.406.155.317.5.76.644 1.036.098.188.486.733.667.56a10.592 10.592 0 01.082.221c.108.309.176.564.337.775.032.04.074.077.124.112.08.061.163.1.25.136l.01.02a3.051 3.051 0 01.054.127c.166.41.282.94.258 1.345l-.218-.016-.01.59c0 .027-.036.1-.086.182-.068.019-.127.048-.134.142l-.008.068a.543.543 0 01-.09.097c-.116.085-.388.116-.558.212-.427.241-.65.029-.854.414-.38.15-1.366.36-1.664.456-.405.132-.661.617-.851.982-.563 1.079-.494 1.898-.861 3.034-.137.423-.186.874-.274 1.312a6.5 6.5 0 01-.24.634c-.111.246-.256.686-.256.686l.139.086s-.09.293-.143.437a25.002 25.002 0 00-.83 2.64c-.147.586-.17 1.165-.45 1.714-.252.49-.31.948-.51 1.46-.054.137-.089.278-.13.418l-17.013-50.23c13.763-6.98 21.791-25.532 24.086-55.652v-9.575c0-25.133-13.615-43.534-40.842-55.203h-1.646v2.693l-4.188-2.693H24.984l-3.89 2.693c0-1.795-.648-2.693-1.945-2.693l-2.095 4.937v52.511c0 1.795.699 2.693 2.095 2.693l-2.095 4.637v23.937l2.095 4.937c-1.396 0-2.095.798-2.095 2.393 1.397 0 2.095.748 2.095 2.244h-2.095l2.095 4.937-2.095 4.937c1.397 3.191 2.095 5.535 2.095 7.031 0 1.796-.698 2.693-2.095 2.693l2.095 11.968v42.787c0 1.596-.698 2.394-2.095 2.394l2.095 4.637v31.268c.399 3.091 1.646 4.637 3.74 4.637h35.307v-78.69h5.834l10.173 34.408 11.37 39.645 4.189 2.244h43.983l-4.088-12.07c.058-.362.118-.738.174-1.192.15-1.228.422-3.08.422-4.72 0-.672-.32-.564-.273-.84.09-.534.336-1.157.482-1.893.12-.603.012-1.379.037-1.555l.004-.024c.05-.356.156-2.629.343-4.135l.009-.068c.032-.23.058-.467.08-.71l.073-.57h-.021c.11-1.265.24-2.576.987-3.511 1.701 2.173 1.172 2.34 1.963 4.702.427 1.739.78 3.327 1.086 5.543.064.464.289.943.344 1.44.072.656.061 1.816.114 2.54.15 2 .456 4.637 1.122 6.91.162.552-.022 1.029-.022 1.562 0 .72.444 1.317.512 1.942.08 1.432.148 1.608.56 2.35.111-.016.093-.042.207-.075a12.28 12.28 0 00-.08.677l-.008.11v.002l-.002.029-.003.052a6.46 6.46 0 00.012 1.107l.894.492.538-.012c.475.444.575.758.848 1.01.224.207.51.367 1.128.452.096.015.198.028.308.038.665.062 1.291-.005 1.689-.178.287-.125.603-.34.513-.775zM93.084 112.034L61.972 91.4a3.337 3.337 0 00-1.668-.45 3.348 3.348 0 00-3.344 3.343v41.271c0 1.844 1.5 3.344 3.344 3.344.58 0 1.158-.154 1.668-.45l31.112-20.636a3.308 3.308 0 001.671-2.893c0-1.207-.625-2.29-1.671-2.894zm31.229 80.784c-.017.018-.032.05-.048.071a1.19 1.19 0 01.048-.07z" fill="#fff"/></svg>