<svg xmlns="http://www.w3.org/2000/svg" viewBox="0 0 445.2 81.16"><path d="M356.35 0h23.13v13.96h-23.13z"/><path d="M430.74 35.66v-1.18a28.68 28.68 0 00-1.15-8.35 15.11 15.11 0 00-4.13-6.66 19.71 19.71 0 00-7.72-4.25 40.39 40.39 0 00-11.82-1.48 66.92 66.92 0 00-11.15.88 22.26 22.26 0 00-9.31 3.75 19 19 0 00-6 7.44V15h-44v3.74a11.39 11.39 0 00-4.08-3.11 20.84 20.84 0 00-8.68-1.84 27.21 27.21 0 00-8.47 1.21 15.08 15.08 0 00-6.56 4.22 17.74 17.74 0 00-3.28 5.43 17.768 17.768 0 00-2-3.16 18.7 18.7 0 00-8.48-5.7c-3.65-1.34-8.64-2-14.82-2-6 0-10.83.74-14.45 2.21a20.41 20.41 0 00-8.49 5.93 19.14 19.14 0 00-2.11 3.29V0h-23.11v64.11h23.13v-9.25a17.29 17.29 0 001.77 2.71 18.3 18.3 0 008.49 5.57c3.65 1.28 8.63 1.92 14.8 1.92 6 0 10.82-.71 14.44-2.11a20 20 0 008.5-5.81 18.67 18.67 0 002.7-4.5 17.84 17.84 0 003.84 5.61 14.85 14.85 0 006.4 3.66 24.68 24.68 0 0015.25-.64 11.27 11.27 0 004.51-3.06v5.06a5.82 5.82 0 01-.45 2.57 3.2 3.2 0 01-2.58 1.88 14.46 14.46 0 01-2.13.16 5.55 5.55 0 01-3.13-.74 1.88 1.88 0 01-.87-1.7v-1.2h-21.1v1.22a12.41 12.41 0 002.25 7.21 14.12 14.12 0 005.66 4.39 28.59 28.59 0 008 2.13c3.148.39 6.318.58 9.49.57a61.66 61.66 0 0010.46-.84 28.26 28.26 0 008.6-2.85 15.87 15.87 0 006-5.51 14.65 14.65 0 002.1-6.45h22.4v-9.79a17.31 17.31 0 005.28 6.4 20.53 20.53 0 009 3.54 72.33 72.33 0 0011.14.79c9.07 0 15.76-1.66 19.9-4.94a14.93 14.93 0 004.63-6.94 32 32 0 001.33-9.79v-1.19h-21.06v4.21c0 3.25-.67 4.64-1.23 5.24a4.66 4.66 0 01-3.57 1.27 5 5 0 01-2.38-.51 3.25 3.25 0 01-1.37-1.7 14.9 14.9 0 01-.89-4.12c-.19-1.81-.28-4.17-.28-7s.09-5.2.28-7a15.48 15.48 0 01.9-4.17 3.29 3.29 0 011.36-1.74 5 5 0 012.38-.51c1.81 0 3 .47 3.6 1.42a7.66 7.66 0 01.88 2.5c.24 1.454.348 2.927.32 4.4v1.19l21.06-.01zm-96 2.62a41.058 41.058 0 01-.33 5.83 9.25 9.25 0 01-.95 3.17 2.61 2.61 0 01-1.25 1.22 6.47 6.47 0 01-4.2 0 2.6 2.6 0 01-1.25-1.22 10 10 0 01-1-3.2 35 35 0 01-.38-5.8 34.403 34.403 0 01.38-5.72 10 10 0 011-3.2 2.87 2.87 0 011.24-1.28 5.36 5.36 0 012.12-.38 5.07 5.07 0 012 .38 2.87 2.87 0 011.29 1.28 9.28 9.28 0 01.95 3.17 40.31 40.31 0 01.38 5.75zm-60-5.87a14 14 0 01.83-4.13 3.26 3.26 0 011.27-1.67 4.71 4.71 0 012.25-.46 5 5 0 012.33.47 2.93 2.93 0 011.23 1.62 15.77 15.77 0 01.79 4.16c.15 1.88.23 4.29.23 7.17s-.08 5.28-.23 7.12a15.54 15.54 0 01-.79 4.12 2.93 2.93 0 01-1.23 1.62 5.9 5.9 0 01-4.58 0 3.25 3.25 0 01-1.27-1.67 13.89 13.89 0 01-.83-4.09c-.15-1.82-.23-4.22-.23-7.12s.11-5.29.26-7.14h-.03z"/><g fill="#fff"><path d="M252.87 1.19v61.73h-20.75V1.19h20.75z"/><path d="M304.77 48.57a17.62 17.62 0 01-3.63 7.83 18.74 18.74 0 01-8 5.45c-3.5 1.333-8.167 2-14 2-6.073 0-10.877-.62-14.41-1.86a17.07 17.07 0 01-8-5.19 16.69 16.69 0 01-3.4-7.78 57.44 57.44 0 01-.75-9.56 46.71 46.71 0 01.86-9 17.93 17.93 0 013.63-7.87 19.17 19.17 0 018-5.58c3.5-1.413 8.167-2.12 14-2.12 6.073 0 10.877.65 14.41 1.95a17.47 17.47 0 018 5.32 17 17 0 013.4 7.83c.514 3.157.764 6.351.75 9.55.007 3.03-.28 6.055-.86 9.03zm-31.18-1.77a15 15 0 00.92 4.45 4.36 4.36 0 001.79 2.25 5.81 5.81 0 002.82.61 6.17 6.17 0 002.88-.61 4 4 0 001.79-2.25 16.62 16.62 0 00.86-4.45c.153-1.873.23-4.28.23-7.22 0-2.94-.077-5.36-.23-7.26a16.74 16.74 0 00-.86-4.5 4 4 0 00-1.79-2.25 6.17 6.17 0 00-2.88-.61 5.81 5.81 0 00-2.82.61 4.36 4.36 0 00-1.79 2.25 15.06 15.06 0 00-.92 4.5c-.153 1.9-.23 4.32-.23 7.26s.077 5.347.23 7.22z"/><path d="M356 16.14v46a14.31 14.31 0 01-2 7.78 14.63 14.63 0 01-5.53 5.1 27 27 0 01-8.24 2.72 60.25 60.25 0 01-10.26.82 73.4 73.4 0 01-9.37-.56 27.28 27.28 0 01-7.67-2 12.89 12.89 0 01-5.19-4 11.2 11.2 0 01-2-6.53h18.66a3.07 3.07 0 001.38 2.68 6.64 6.64 0 003.81 1c.773 0 1.545-.056 2.31-.17a4.39 4.39 0 003.46-2.51 6.92 6.92 0 00.58-3.11v-8.74h-.23a10.48 10.48 0 01-5.88 5.53 23.09 23.09 0 01-8.19 1.47 24.4 24.4 0 01-6.34-.86 13.59 13.59 0 01-5.88-3.37 18.11 18.11 0 01-4.32-7 34.72 34.72 0 01-1.67-11.8 40.9 40.9 0 011.33-11.28 18.19 18.19 0 013.79-7.31 13.85 13.85 0 016.05-3.89 25.94 25.94 0 018.07-1.17 19.56 19.56 0 018.19 1.73 10.67 10.67 0 015.53 6h.23v-6.53H356zm-31.42 28.15a11.07 11.07 0 001.15 3.59 3.77 3.77 0 001.85 1.73 7 7 0 002.59.43 6.68 6.68 0 002.48-.43 3.77 3.77 0 001.85-1.73 10.36 10.36 0 001.1-3.59c.26-1.989.377-3.994.35-6a41.163 41.163 0 00-.35-5.92 10.38 10.38 0 00-1.1-3.59 4 4 0 00-1.86-1.78 6.19 6.19 0 00-2.48-.48 6.5 6.5 0 00-2.59.48 4 4 0 00-1.85 1.77 11.09 11.09 0 00-1.15 3.59 35.14 35.14 0 00-.4 5.92 35.78 35.78 0 00.41 6.01zM378.28 1.19v11.58h-20.75V1.19h20.75zm0 15v46.73h-20.75V16.14l20.75.05z"/><path d="M410.53 29.85a8.72 8.72 0 00-1-2.9c-.847-1.333-2.383-2-4.61-2a6.15 6.15 0 00-2.94.65 4.4 4.4 0 00-1.9 2.34 16.58 16.58 0 00-1 4.5c-.193 1.873-.29 4.25-.29 7.13s.097 5.257.29 7.13a16 16 0 001 4.45 4.4 4.4 0 001.9 2.29 6.15 6.15 0 002.94.65 5.82 5.82 0 004.44-1.64c1.04-1.093 1.56-3.11 1.56-6.05v-3h18.68a30.66 30.66 0 01-1.27 9.42A13.69 13.69 0 01424 59.2c-3.92 3.113-10.3 4.67-19.14 4.67a70.78 70.78 0 01-11-.78 19.28 19.28 0 01-8.47-3.33 16.61 16.61 0 01-5.39-7.17c-1.333-3.08-2-7.16-2-12.24 0-5.533.73-9.97 2.19-13.31a18.07 18.07 0 015.94-7.7A21 21 0 01395 15.8a65.37 65.37 0 0111-.87 39 39 0 0111.47 1.43 18.46 18.46 0 017.26 4 13.85 13.85 0 013.81 6.14 27.36 27.36 0 011.1 8h-18.77a25.05 25.05 0 00-.34-4.65z"/></g><path d="M231.56 43.36v-5.95a32.82 32.82 0 00-1.63-11.08 17 17 0 00-5.08-7.43 20.28 20.28 0 00-8.32-4 55.23 55.23 0 00-23.53.22 20.74 20.74 0 00-8.74 4.55 18.36 18.36 0 00-5.06 8.12 39 39 0 00-1.56 11.78 50.532 50.532 0 00.6 8.11l-8.63-12.17L188.07 15h-25.41l-10 14V0h-23.09v23.92a11.63 11.63 0 00-1-2 13.77 13.77 0 00-5.54-5 26.11 26.11 0 00-8.21-2.45 64 64 0 00-18-.09 27.61 27.61 0 00-8.07 2.35 17.77 17.77 0 00-5.39 3.94V15h-8.2V1.21H52V15h-6.88v3.32C41 15.27 34.65 13.75 26 13.75a48.92 48.92 0 00-11.31 1.15 26 26 0 00-8.09 3.27 14.86 14.86 0 00-4.94 5A12.66 12.66 0 000 29.55a12 12 0 002.52 7.89 17.91 17.91 0 006 4.68 36.75 36.75 0 007.45 2.68c2.567.667 4.963 1.273 7.19 1.82a27.69 27.69 0 015.36 1.9c1.41.71 1.59 1.51 1.59 2.14a2.06 2.06 0 01-1.2 1.91 7.11 7.11 0 01-3.61.88 4.5 4.5 0 01-3.56-1.31 3.14 3.14 0 01-.83-1.46 8.24 8.24 0 01-.3-2.27v-1.2H0v1.19c0 5.52 2.09 9.75 6.22 12.6s10.39 4.1 19.4 4.1A50.18 50.18 0 0036.43 64a24.82 24.82 0 008.23-3.28 16.83 16.83 0 005.26-5.31 13.16 13.16 0 001.9-6.93 12.18 12.18 0 00-2.52-8 17.47 17.47 0 00-6-4.64 35.08 35.08 0 00-7.46-2.55c-2.573-.573-4.97-1.12-7.19-1.64A31.1 31.1 0 0123.28 30c-1.37-.61-1.54-1.33-1.54-1.9a1.83 1.83 0 01.95-1.68 5.85 5.85 0 013.17-.77 5.63 5.63 0 013.38.84c.8.6 1 2 1 3.16v1.19h20.32v-1.21c0-.63 0-1.24-.09-1.84H52v23.72a17.92 17.92 0 001.07 6.72 8.29 8.29 0 003.63 4.17 14.79 14.79 0 006 1.66c2.27.2 5 .31 8.18.31 1.787 0 3.65-.043 5.59-.13 1.88-.09 3.8-.13 5.71-.13h1.19v-1.7a16.2 16.2 0 004 1.7 31.77 31.77 0 008.33 1 23.5 23.5 0 009-1.65 12.71 12.71 0 004.5-3v.25a11 11 0 00.9 2.81l.32.68h42.28V51.34l2.14-2.52 10 15.29h25.08l-1.12-1.58c1.21.52 2.46.938 3.74 1.25a54.7 54.7 0 0012.85 1.29c9 0 15.27-1.51 19.29-4.61s6.18-7.81 6.34-13.92v-1.22h-21.08v1.19c0 3.55-.68 5-1.24 5.64a4.43 4.43 0 01-3.45 1.3 5.31 5.31 0 01-3.22-1c-1-.74-1.24-2.64-1.24-4.1v-5l30.77.01zm-26.32-17.73c1.81 0 3 .41 3.58 1.22a8.64 8.64 0 011 4.77v.89h-9v-.89a8.63 8.63 0 011-4.77c.53-.85 1.69-1.22 3.42-1.22zM100 31.86v-1.15c.09-2.8.73-3.78 1.11-4.13a5.36 5.36 0 013.58-.95c3.63 0 4.12 1.59 4.12 3.14a3 3 0 01-1 2.42 9.07 9.07 0 01-4.17 1.51l-8.14 1.47a48.39 48.39 0 00-8.5 2.18 17.67 17.67 0 00-5.68 3.26 11.44 11.44 0 00-3.15 4.68 18.25 18.25 0 00-.93 6.11v.85a3.56 3.56 0 01-1.41-.49c-.17-.11-.69-.47-.69-1.83V27.8h4.69a19.21 19.21 0 00-.21 2.88v1.19l20.38-.01zm.42 13.59a5.26 5.26 0 012.73-1.81 19.48 19.48 0 014-.94 7.59 7.59 0 001.73-.39V46c0 2.31-.42 4-1.24 5.06s-2.09 1.45-4 1.45a3.59 3.59 0 01-3.88-3.91 5.73 5.73 0 01.63-3.15h.03z"/><g fill="#fff"><path d="M19.75 51a4.34 4.34 0 001.15 2 5.63 5.63 0 004.38 1.64 8.23 8.23 0 004.21-1 3.24 3.24 0 001.79-2.94A3.49 3.49 0 0029 47.44a28.75 28.75 0 00-5.59-2 584.394 584.394 0 00-7.21-1.82A35.48 35.48 0 019 41a16.68 16.68 0 01-5.59-4.37 10.85 10.85 0 01-2.25-7.13c-.016-2.015.502-4 1.5-5.75a13.63 13.63 0 014.55-4.63A24.74 24.74 0 0115 16.06a47.53 47.53 0 0111-1.12c15.6 0 23.4 4.9 23.4 14.7h-18c0-2-.48-3.37-1.44-4.11a6.72 6.72 0 00-4.09-1.08 7 7 0 00-3.8 1 3 3 0 00-1.5 2.68 3.2 3.2 0 002.25 3 32 32 0 005.59 1.77c2.227.52 4.63 1.067 7.21 1.64a33.72 33.72 0 017.2 2.46 16.24 16.24 0 015.59 4.32 11 11 0 012.25 7.22 11.94 11.94 0 01-1.73 6.31A15.56 15.56 0 0144 59.72a23.5 23.5 0 01-7.84 3.11 48.78 48.78 0 01-10.55 1c-8.667 0-14.91-1.297-18.73-3.89s-5.717-6.443-5.69-11.55H19.4a9.39 9.39 0 00.35 2.61z"/><path d="M53.23 16.14V2.4H74v13.74h8.18v10.47H74v22.3a3.14 3.14 0 001.21 2.81 6.77 6.77 0 003.75.82h3.23v10.38c-1.92 0-3.84.043-5.76.13-1.92.087-3.763.13-5.53.13-3.153 0-5.843-.1-8.07-.3a13.54 13.54 0 01-5.48-1.51 7.09 7.09 0 01-3.11-3.59 16.7 16.7 0 01-1-6.27v-24.9h-6.93V16.14h6.92z"/><path d="M110.46 60.41c-.153-.867-.307-1.79-.46-2.77h-.23a10.7 10.7 0 01-5.48 4.67 22.23 22.23 0 01-8.59 1.56 30.47 30.47 0 01-8-.91 13.45 13.45 0 01-5.36-2.72 10.47 10.47 0 01-3-4.32 15.88 15.88 0 01-.92-5.53 17 17 0 01.86-5.71 10.21 10.21 0 012.82-4.19 16.44 16.44 0 015.3-3 47 47 0 018.3-2.12l8.18-1.47a10.38 10.38 0 004.73-1.77 4.12 4.12 0 001.39-3.36c0-2.88-1.767-4.32-5.3-4.32a6.4 6.4 0 00-4.38 1.25c-.92.833-1.42 2.5-1.5 5h-18a12.83 12.83 0 012.42-8.17 16.5 16.5 0 016-4.76A26.27 26.27 0 0197 15.5a57.73 57.73 0 017.72-.56 70.94 70.94 0 0110 .65 24.79 24.79 0 017.84 2.33 12.53 12.53 0 015.07 4.58 14.07 14.07 0 011.74 7.5v22.8a42.75 42.75 0 00.35 5.79 9.72 9.72 0 001.61 4.32h-20.06a9.74 9.74 0 01-.81-2.5zm-2-8.65C109.487 50.5 110 48.58 110 46v-5.65h-.23a4.51 4.51 0 01-2.82 1.17 20.53 20.53 0 00-4.21 1 6.35 6.35 0 00-3.34 2.29 6.83 6.83 0 00-.92 3.76 4.76 4.76 0 005.07 5.1c2.3 0 3.95-.633 4.95-1.9l-.04-.01z"/><path d="M151.51 1.19v31.12h.23l11.53-16.17h22.13l-17.29 19.29 19.49 27.49h-22.14L155 46.84l-3.46 4.06v12h-20.78V1.19h20.75z"/><path d="M199.6 48.31c0 2.54.577 4.227 1.73 5.06a6.51 6.51 0 003.92 1.25 5.59 5.59 0 004.32-1.69c1.04-1.127 1.56-3.273 1.56-6.44h18.67c-.153 5.76-2.113 10.093-5.88 13s-9.953 4.363-18.56 4.37a53.35 53.35 0 01-12.56-1.25 18.13 18.13 0 01-8.19-4.15 16 16 0 01-4.44-7.57 41.9 41.9 0 01-1.33-11.33 37.69 37.69 0 011.5-11.41 17.11 17.11 0 014.73-7.61 19.49 19.49 0 018.24-4.28 54.09 54.09 0 0122.94-.22 19 19 0 017.84 3.76 15.81 15.81 0 014.73 6.92 31.54 31.54 0 011.56 10.68v4.76H199.6v6.15zm10.2-22.13c-.807-1.153-2.323-1.73-4.55-1.73s-3.707.577-4.44 1.73c-.807 1.153-1.21 2.97-1.21 5.45v2.07H211v-2.08c0-2.473-.4-4.29-1.2-5.45v.01z"/></g><g><g fill="#fff"><path d="M357.18 80.04h73.56v1.12h-73.56zM0 80.04h305.63v1.12H0z"/></g><path d="M433.51 9a6.84 6.84 0 0111.68 4.87 6.65 6.65 0 01-2 4.83 6.79 6.79 0 01-9.69 0 6.58 6.58 0 01-2-4.83A6.63 6.63 0 01433.51 9zm.87 9a5.48 5.48 0 007.92 0 5.83 5.83 0 001.58-4.14 5.82 5.82 0 00-1.58-4.16 5.53 5.53 0 00-7.92 0 5.78 5.78 0 00-1.6 4.16 5.78 5.78 0 001.61 4.14h-.01zm1.33-8.17h3.08c1.84 0 2.757.753 2.75 2.26a2.21 2.21 0 01-.55 1.58 1.89 1.89 0 01-1.52.65l2.28 3.55h-1.39l-2.2-3.55H437v3.55h-1.31l.02-8.04zm1.29 3.51h1.56a2.24 2.24 0 001.22-.25 1.08 1.08 0 00.44-1 1 1 0 00-.49-1 2.85 2.85 0 00-1.16-.23H437v2.48z" fill="#fff"/></g></svg>