<svg xmlns="http://www.w3.org/2000/svg" viewBox="0 0 152.73 43.85"><g fill="#fff"><path d="M0 6.05v6.02h4.69v24.86h6.38V12.07h4.7V6.05zM69.21 6.05v30.88h14.62v-6.01h-8.24V24.5h6.53v-6.02h-6.53v-6.41h8.24V6.05zM96.97 1.27h-6.38v30.88h14.62v-6.02h-8.24zM148.3 20.58a8.89 8.89 0 00-6.87-14.53h-6.88v30.88h7.04a9.56 9.56 0 009.56-9.56 9.627 9.627 0 00-2.85-6.79zm-7.24-8.51a2.87 2.87 0 010 5.74h-.13v-5.75h.13v.01zm3.69 15.3a3.54 3.54 0 01-3.54 3.54h-.28v-7.09h.28c1.96.01 3.54 1.6 3.54 3.55zM39.7 17.35c0-6.24-5.06-11.3-11.3-11.3H21.51v30.88h6.38v-8.29h.5c.43 0 .85-.03 1.26-.07l4.13 8.36h7.12l-5.35-10.85c2.54-2.07 4.15-5.21 4.15-8.73zm-11.79 5.28V12.07h.13c2.92 0 5.28 2.36 5.28 5.28 0 2.92-2.36 5.28-5.28 5.28h-.13zM56.85 28.86c0 1.61-1.31 2.92-2.92 2.92-1.62 0-2.92-1.31-2.92-2.92V6.05h-6.38v22.44c0 5.14 4.17 9.31 9.31 9.31 5.14 0 9.31-4.17 9.31-9.31V6.05h-6.38v22.81h-.02zM88.35 41.32h64.38v2.53H88.35z"/><path d="M88.35 0h64.38v2.53H88.35zM122.73 41.69h6.53l-6.66-30.88h-7.83l-6.66 30.88h6.53l.75-3.54h6.59l.75 3.54zm-6.06-9.56l2.01-9.47 2.01 9.47h-4.02z"/></g></svg>